<svg width="539" height="386" viewBox="0 0 539 386" fill="none" xmlns="http://www.w3.org/2000/svg">
<path d="M4.10451 316V263.44H13.1045V284.68H19.3685L29.2325 263.44H39.0245L27.2885 288.64L39.6005 316H29.5925L19.2245 292.888H13.1045V316H4.10451ZM74.0604 316V263.44H105.596V271.288H82.9164V284.968H103.076V292.744H82.9164V308.152H105.596V316H74.0604ZM153.88 316V296.92L138.472 263.44H147.904L156.112 281.656C156.736 283.096 157.264 284.512 157.696 285.904C158.128 287.296 158.416 288.376 158.56 289.144C158.752 288.376 159.04 287.296 159.424 285.904C159.856 284.512 160.384 283.096 161.008 281.656L169 263.44H178.36L162.952 296.92V316H153.88ZM227.652 316.72C224.052 316.72 220.932 316.12 218.292 314.92C215.652 313.72 213.612 312.016 212.172 309.808C210.78 307.552 210.06 304.912 210.012 301.888H219.012C219.012 304.048 219.78 305.752 221.316 307C222.9 308.2 225.036 308.8 227.724 308.8C230.316 308.8 232.332 308.2 233.772 307C235.26 305.8 236.004 304.144 236.004 302.032C236.004 300.256 235.476 298.72 234.42 297.424C233.412 296.08 231.948 295.168 230.028 294.688L223.98 293.032C219.852 291.976 216.66 290.08 214.404 287.344C212.196 284.608 211.092 281.296 211.092 277.408C211.092 274.432 211.764 271.84 213.108 269.632C214.452 267.424 216.348 265.72 218.796 264.52C221.292 263.32 224.22 262.72 227.58 262.72C232.668 262.72 236.7 264.04 239.676 266.68C242.652 269.272 244.164 272.776 244.212 277.192H235.212C235.212 275.128 234.54 273.52 233.196 272.368C231.852 271.168 229.956 270.568 227.508 270.568C225.156 270.568 223.332 271.12 222.036 272.224C220.74 273.328 220.092 274.888 220.092 276.904C220.092 278.728 220.572 280.288 221.532 281.584C222.54 282.832 223.98 283.72 225.852 284.248L232.116 285.976C236.292 287.032 239.484 288.928 241.692 291.664C243.9 294.352 245.004 297.688 245.004 301.672C245.004 304.648 244.284 307.288 242.844 309.592C241.404 311.848 239.388 313.6 236.796 314.848C234.204 316.096 231.156 316.72 227.652 316.72ZM292.064 316V271.792H278.312V263.44H314.888V271.792H301.136V316H292.064ZM365.692 316.72C362.332 316.72 359.404 316.096 356.908 314.848C354.46 313.552 352.564 311.752 351.22 309.448C349.924 307.096 349.276 304.336 349.276 301.168V278.272C349.276 275.104 349.924 272.368 351.22 270.064C352.564 267.712 354.46 265.912 356.908 264.664C359.404 263.368 362.332 262.72 365.692 262.72C369.1 262.72 372.028 263.368 374.476 264.664C376.924 265.912 378.796 267.712 380.092 270.064C381.436 272.368 382.108 275.08 382.108 278.2V301.168C382.108 304.336 381.436 307.096 380.092 309.448C378.796 311.752 376.924 313.552 374.476 314.848C372.028 316.096 369.1 316.72 365.692 316.72ZM365.692 308.8C368.14 308.8 369.988 308.152 371.236 306.856C372.484 305.512 373.108 303.616 373.108 301.168V278.272C373.108 275.776 372.484 273.88 371.236 272.584C369.988 271.288 368.14 270.64 365.692 270.64C363.244 270.64 361.396 271.288 360.148 272.584C358.9 273.88 358.276 275.776 358.276 278.272V301.168C358.276 303.616 358.9 305.512 360.148 306.856C361.444 308.152 363.292 308.8 365.692 308.8ZM418.368 316V263.44H429.384L444 305.92C443.856 304.384 443.688 302.584 443.496 300.52C443.352 298.408 443.232 296.272 443.136 294.112C443.04 291.904 442.992 289.984 442.992 288.352V263.44H451.2V316H440.184L425.712 273.52C425.808 274.912 425.928 276.592 426.072 278.56C426.216 280.528 426.336 282.544 426.432 284.608C426.528 286.672 426.576 288.568 426.576 290.296V316H418.368ZM488.612 316V263.44H520.148V271.288H497.468V284.968H517.628V292.744H497.468V308.152H520.148V316H488.612Z" fill="black"/>
<path d="M4.19539 372V336.96H14.9474C18.3394 336.96 21.0274 337.776 23.0114 339.408C24.9954 341.008 25.9874 343.2 25.9874 345.984C25.9874 347.552 25.6354 348.912 24.9314 350.064C24.2274 351.216 23.2674 352.112 22.0514 352.752C20.8674 353.392 19.4914 353.712 17.9234 353.712V353.52C19.6194 353.488 21.1234 353.808 22.4354 354.48C23.7794 355.12 24.8354 356.08 25.6034 357.36C26.4034 358.64 26.8034 360.192 26.8034 362.016C26.8034 364.032 26.3394 365.792 25.4114 367.296C24.4834 368.8 23.1714 369.968 21.4754 370.8C19.8114 371.6 17.8114 372 15.4754 372H4.19539ZM10.0514 367.008H15.0914C16.8514 367.008 18.2274 366.544 19.2194 365.616C20.2434 364.656 20.7554 363.36 20.7554 361.728C20.7554 360.096 20.2434 358.784 19.2194 357.792C18.2274 356.768 16.8514 356.256 15.0914 356.256H10.0514V367.008ZM10.0514 351.408H14.8514C16.4514 351.408 17.6994 350.992 18.5954 350.16C19.5234 349.296 19.9874 348.128 19.9874 346.656C19.9874 345.184 19.5234 344.032 18.5954 343.2C17.6994 342.368 16.4514 341.952 14.8514 341.952H10.0514V351.408ZM35.4246 372V336.96H56.4486V342.192H41.3286V351.312H54.7686V356.496H41.3286V366.768H56.4486V372H35.4246ZM63.5819 372L72.4139 336.96H80.1419L89.0219 372H82.8779L80.9579 363.504H71.6459L69.7259 372H63.5819ZM72.7499 358.608H79.8539L77.7419 349.2C77.3899 347.632 77.0859 346.224 76.8299 344.976C76.5739 343.696 76.3979 342.768 76.3019 342.192C76.2059 342.768 76.0299 343.696 75.7739 344.976C75.5499 346.224 75.2459 347.616 74.8619 349.152L72.7499 358.608ZM103.115 372L94.2831 336.96H100.523L105.803 359.808C106.091 360.928 106.363 362.128 106.619 363.408C106.875 364.688 107.067 365.728 107.195 366.528C107.323 365.728 107.499 364.688 107.723 363.408C107.947 362.128 108.187 360.912 108.443 359.76L113.675 336.96H119.723L110.891 372H103.115ZM127.528 372V336.96H148.552V342.192H133.432V351.312H146.872V356.496H133.432V366.768H148.552V372H127.528ZM157.654 372V336.96H168.742C171.078 336.96 173.094 337.392 174.79 338.256C176.518 339.12 177.862 340.336 178.822 341.904C179.782 343.44 180.262 345.264 180.262 347.376C180.262 349.68 179.67 351.712 178.486 353.472C177.334 355.232 175.766 356.48 173.782 357.216L180.742 372H174.022L167.926 358.08H163.654V372H157.654ZM163.654 352.8H168.742C170.438 352.8 171.766 352.336 172.726 351.408C173.686 350.48 174.166 349.2 174.166 347.568C174.166 345.904 173.686 344.608 172.726 343.68C171.766 342.72 170.438 342.24 168.742 342.24H163.654V352.8ZM229.904 372.48C227.504 372.48 225.424 372.08 223.664 371.28C221.904 370.48 220.544 369.344 219.584 367.872C218.656 366.368 218.176 364.608 218.144 362.592H224.144C224.144 364.032 224.656 365.168 225.68 366C226.736 366.8 228.16 367.2 229.952 367.2C231.68 367.2 233.024 366.8 233.984 366C234.976 365.2 235.472 364.096 235.472 362.688C235.472 361.504 235.12 360.48 234.416 359.616C233.744 358.72 232.768 358.112 231.488 357.792L227.456 356.688C224.704 355.984 222.576 354.72 221.072 352.896C219.6 351.072 218.864 348.864 218.864 346.272C218.864 344.288 219.312 342.56 220.208 341.088C221.104 339.616 222.368 338.48 224 337.68C225.664 336.88 227.616 336.48 229.856 336.48C233.248 336.48 235.936 337.36 237.92 339.12C239.904 340.848 240.912 343.184 240.944 346.128H234.944C234.944 344.752 234.496 343.68 233.6 342.912C232.704 342.112 231.44 341.712 229.808 341.712C228.24 341.712 227.024 342.08 226.16 342.816C225.296 343.552 224.864 344.592 224.864 345.936C224.864 347.152 225.184 348.192 225.824 349.056C226.496 349.888 227.456 350.48 228.704 350.832L232.88 351.984C235.664 352.688 237.792 353.952 239.264 355.776C240.736 357.568 241.472 359.792 241.472 362.448C241.472 364.432 240.992 366.192 240.032 367.728C239.072 369.232 237.728 370.4 236 371.232C234.272 372.064 232.24 372.48 229.904 372.48ZM257.485 372V342.528H248.317V336.96H272.701V342.528H263.533V372H257.485ZM280.459 372V336.96H291.547C293.883 336.96 295.899 337.392 297.595 338.256C299.323 339.12 300.667 340.336 301.627 341.904C302.587 343.44 303.067 345.264 303.067 347.376C303.067 349.68 302.475 351.712 301.291 353.472C300.139 355.232 298.571 356.48 296.587 357.216L303.547 372H296.827L290.731 358.08H286.459V372H280.459ZM286.459 352.8H291.547C293.243 352.8 294.571 352.336 295.531 351.408C296.491 350.48 296.971 349.2 296.971 347.568C296.971 345.904 296.491 344.608 295.531 343.68C294.571 342.72 293.243 342.24 291.547 342.24H286.459V352.8ZM309.192 372L318.024 336.96H325.752L334.632 372H328.488L326.568 363.504H317.256L315.336 372H309.192ZM318.36 358.608H325.464L323.352 349.2C323 347.632 322.696 346.224 322.44 344.976C322.184 343.696 322.008 342.768 321.912 342.192C321.816 342.768 321.64 343.696 321.384 344.976C321.16 346.224 320.856 347.616 320.472 349.152L318.36 358.608ZM349.589 372V342.528H340.421V336.96H364.805V342.528H355.637V372H349.589ZM373.138 372V336.96H394.162V342.192H379.042V351.312H392.482V356.496H379.042V366.768H394.162V372H373.138ZM414.208 372.48C411.968 372.48 410 372.064 408.304 371.232C406.64 370.368 405.344 369.168 404.416 367.632C403.52 366.064 403.072 364.224 403.072 362.112V346.848C403.072 344.704 403.52 342.864 404.416 341.328C405.344 339.792 406.64 338.608 408.304 337.776C410 336.912 411.968 336.48 414.208 336.48C416.48 336.48 418.432 336.912 420.064 337.776C421.728 338.608 423.024 339.792 423.952 341.328C424.88 342.864 425.344 344.704 425.344 346.848H419.296C419.296 345.184 418.848 343.92 417.952 343.056C417.088 342.192 415.84 341.76 414.208 341.76C412.576 341.76 411.312 342.192 410.416 343.056C409.52 343.92 409.072 345.168 409.072 346.8V362.112C409.072 363.744 409.52 365.008 410.416 365.904C411.312 366.8 412.576 367.248 414.208 367.248C415.84 367.248 417.088 366.8 417.952 365.904C418.848 365.008 419.296 363.744 419.296 362.112V358.56H413.344V353.376H425.344V362.112C425.344 364.224 424.88 366.064 423.952 367.632C423.024 369.168 421.728 370.368 420.064 371.232C418.432 372.064 416.48 372.48 414.208 372.48ZM434.637 372V366.72H441.693V342.24H434.637V336.96H454.797V342.24H447.741V366.72H454.797V372H434.637ZM465.242 372V336.96H486.266V342.192H471.146V351.312H484.586V356.496H471.146V366.768H486.266V372H465.242ZM506.215 372.48C503.815 372.48 501.735 372.08 499.975 371.28C498.215 370.48 496.855 369.344 495.895 367.872C494.967 366.368 494.487 364.608 494.455 362.592H500.455C500.455 364.032 500.967 365.168 501.991 366C503.047 366.8 504.471 367.2 506.263 367.2C507.991 367.2 509.335 366.8 510.295 366C511.287 365.2 511.783 364.096 511.783 362.688C511.783 361.504 511.431 360.48 510.727 359.616C510.055 358.72 509.079 358.112 507.799 357.792L503.767 356.688C501.015 355.984 498.887 354.72 497.383 352.896C495.911 351.072 495.175 348.864 495.175 346.272C495.175 344.288 495.623 342.56 496.519 341.088C497.415 339.616 498.679 338.48 500.311 337.68C501.975 336.88 503.927 336.48 506.167 336.48C509.559 336.48 512.247 337.36 514.231 339.12C516.215 340.848 517.223 343.184 517.255 346.128H511.255C511.255 344.752 510.807 343.68 509.911 342.912C509.015 342.112 507.751 341.712 506.119 341.712C504.551 341.712 503.335 342.08 502.471 342.816C501.607 343.552 501.175 344.592 501.175 345.936C501.175 347.152 501.495 348.192 502.135 349.056C502.807 349.888 503.767 350.48 505.015 350.832L509.191 351.984C511.975 352.688 514.103 353.952 515.575 355.776C517.047 357.568 517.783 359.792 517.783 362.448C517.783 364.432 517.303 366.192 516.343 367.728C515.383 369.232 514.039 370.4 512.311 371.232C510.583 372.064 508.551 372.48 506.215 372.48Z" fill="black"/>
<g clip-path="url(#clip0_27_82)">
<path d="M410.372 68.4159C415.989 74.9084 415.321 75.818 418.549 78.4901C420.327 79.9569 428.017 85.8809 436.761 83.7091C440.566 82.7654 446.943 79.7067 447.532 74.3853C447.792 72.0203 446.943 68.973 444.746 67.1083C439.547 62.6965 429.943 67.5062 428.584 64.6864C428.142 63.754 428.855 62.5601 429.139 62.0712C432.446 56.5224 445.822 55.681 455.89 57.0341C479.697 60.2291 493.9 76.8414 499.925 83.891C507.14 92.3279 507.99 96.7851 507.525 100.151C506.642 106.484 500.741 111.214 497.151 114.08C492.824 117.536 488.792 119.208 487.263 119.787C479.176 122.88 473.174 121.823 466.718 121.868C452.311 121.971 441.144 127.542 437.271 129.475C423.532 136.331 416.125 146.872 412.376 151.443C404.335 161.21 397.041 171.182 399.612 180.983C400.314 183.655 403.429 187.214 409.669 194.355C415.695 201.245 421.142 206.214 426.556 211.126C432.4 216.425 435.322 219.074 436.534 219.643C443.602 222.951 453.874 223.27 463.082 223.554C463.739 223.577 465.653 223.634 467.93 224.452C469.266 224.941 472.789 226.272 474.941 229.91C475.473 230.808 476.288 232.468 476.526 234.811H441.405C437.961 234.515 435.832 233.39 434.518 232.389C433.816 231.855 433.612 231.57 431.642 229.66C431.642 229.66 430.6 228.659 427.326 225.646C421.165 219.984 405.264 209.432 405.264 209.432C396.101 203.349 373.642 188.454 367.208 177.811C366.438 176.537 363.969 172.148 360.107 171.807C358.544 171.671 357.276 172.217 356.438 172.671C354.104 173.911 352.349 174.786 350.582 176.139C347.943 178.163 346.233 180.324 345.497 181.302C345.293 181.574 345.157 181.779 345.123 181.813C343.843 183.621 337.535 186.123 319.719 189.636C319.47 186.702 317.782 169.874 304.033 159.959C303.557 159.618 294.564 153.296 282.762 153.273C280.531 153.273 274.098 153.251 273.079 156.071C272.818 156.81 272.92 157.731 274.053 159.709C276.873 164.632 280.724 166.747 284.971 170.249C284.971 170.249 288.29 172.978 291.846 176.969C298.472 184.394 304.089 197.413 300.907 210.262C300.318 212.627 299.151 216.141 296.58 220.075C296.523 220.609 296.535 221.371 296.965 222.03C297.973 223.554 300.589 223.452 301.484 223.418C308.789 223.19 330.818 224.282 340.989 226.704C345.236 227.716 351.228 229.853 357.933 234.981L26.1513 234.834C24.5883 234.22 21.0547 232.571 18.7328 228.739C17.8947 227.352 15.1312 222.77 17.1812 218.949C18.8235 215.89 22.527 215.197 23.2745 215.049C27.9521 214.173 32.0634 216.732 32.9695 217.278C42.5173 222.94 73.0859 227.579 94.5485 225.169C118.129 222.519 134.88 210.865 141.506 206.169C156.184 195.776 165.279 183.746 170.398 175.776C170.636 176.242 170.885 176.708 171.146 177.163C176.004 185.998 183.683 195.731 196.199 204.554C197.784 205.748 200.321 207.328 203.73 208.249C206.358 208.954 213.833 210.421 215.453 207.67C216.993 205.043 211.942 200.677 204.886 188.965C202.19 184.497 200.276 180.722 199.121 178.357C195.893 171.705 191.883 161.972 189.301 149.703C187.115 139.333 182.913 118.559 190.445 94.6361C191.849 90.1789 197.535 73.3279 211.817 57.83C249.895 16.5098 316.797 22.5248 344.636 30.4159C361.851 35.2938 382.34 46.3686 383.54 47.0281C391.774 51.5421 396.622 55.1011 400.563 58.535C405.694 63.0149 409.805 67.7223 410.405 68.4159H410.372Z" fill="#F47E20"/>
<path d="M330.841 211.9C330.048 211.854 326.696 212.07 322.041 211.945C318.36 211.854 315.404 211.638 313.671 211.49C311.1 211.729 309.333 210.16 309.333 208.841C309.333 207.943 310.171 207.056 311.247 206.533C312.097 206.294 313.342 205.782 314.43 204.679C315.959 203.144 316.355 201.325 316.525 200.336C316.672 199.506 316.683 198.937 316.683 196.595C316.683 196.14 316.661 192.558 316.661 191.967C316.593 179.744 308.823 165.508 296.421 159.516C288.188 155.536 278.107 155.457 277.167 157.947C276.329 160.153 283.385 162.495 290.238 170.545C298.8 180.585 304.418 196.061 300.261 209.841C299.196 213.378 297.056 216.198 295.934 219.654C295.889 220.427 296.025 221.075 296.32 221.61C297.226 223.259 299.525 223.622 300.748 223.77C310.194 224.885 343.016 222.792 347.399 231.32C347.694 231.9 348.068 232.923 347.875 234.527C165.743 234.913 32.3012 234.902 25.4943 234.402C20.5562 234.038 17.4642 231.479 17.4642 231.479C15.3576 229.728 14.191 227.477 13.5115 225.521C13.3302 225.146 10.9745 220.098 13.8399 215.322C16.309 211.206 20.76 210.467 22.1531 210.319C26.1852 209.887 29.1752 211.74 30.036 212.332C33.094 213.548 37.7149 215.265 43.4572 216.868C53.945 219.813 76.0645 225.737 102.658 219.802C122.41 215.39 135.718 206.419 138.889 204.213C156.807 191.762 166.241 176.356 170.557 168.055C181.01 179.676 188.644 188.658 194.137 196.026C194.137 196.026 200.899 205.123 208.498 206.351C208.985 206.43 210.367 206.658 210.662 206.112C211.047 205.396 209.314 203.77 208.804 203.303C207.989 202.405 206.811 201.063 205.429 199.403C200.208 193.127 176.208 163.268 174.362 124.927C172.471 85.7332 195.281 46.9827 234.129 26.334C250.801 17.4764 265.513 14.0767 272.456 12.8145C311.36 5.7535 344.851 18.6703 353.934 22.161C360.424 24.6625 374.344 30.5411 381.751 33.7134C403.768 43.1395 412.58 47.574 413.407 46.2323C414.619 44.2879 398.264 31.5985 390.981 26.5728C342.393 -6.99276 240.823 -14.9521 192.11 39.4896C175.766 57.7619 165.811 82.5722 162.594 98.6841C159.14 115.979 161.167 134.751 161.507 137.15C162.311 142.858 163.41 144.439 163.92 147.224C163.92 148.771 164.169 149.908 164.191 149.999C164.373 150.977 162.991 171.159 142.706 187.828C134.302 194.73 126.521 197.857 119.884 200.472C101.74 207.602 86.1559 207.886 78.0012 207.909C64.4667 207.954 53.6392 207.988 40.4332 203.372C33.5357 200.961 28.7335 198.244 21.0319 198.926C18.778 199.131 6.96508 200.177 2.01566 209.034C-3.3868 218.722 3.1256 231.093 8.59602 237.312C14.0551 243.521 20.76 245.84 24.0219 246.716L362.814 246.67C364.128 246.5 365.102 246.034 365.793 245.34C369.519 241.667 364.921 231.514 363.018 228.137C355.316 214.447 335.802 212.309 330.841 211.9Z" fill="#020202"/>
<path d="M521.513 108.838C522.023 107.234 523.416 101.959 517.039 89.5762C512.214 80.2183 501.647 59.7061 478.021 50.405C451.224 39.8533 416.522 47.2327 413.271 59.6378C411.051 68.1543 422.955 81.6737 432.65 81.344C437.52 81.1848 444.168 78.0238 444.27 73.8281C444.304 72.35 443.5 71.2016 443.308 70.9514C439.547 66.0735 428.267 71.736 425.356 67.8473C423.782 65.7324 425.265 61.5594 427.01 59.0693C434.043 49.0178 454.645 52.7473 458.507 53.4523C482.121 57.7276 495.112 74.9993 500.401 82.0262C508.25 92.4643 507.99 97.6833 507.525 100.151C506.291 106.711 500.322 111.532 497.151 114.079C492.79 117.593 488.713 119.242 487.263 119.787C479.007 122.892 473.015 120.913 466.084 121.436C439.502 123.426 426.5 133.079 411.731 151.011C405.105 159.061 395.422 170.386 398.967 180.551C401.934 189.09 425.786 212.525 434.292 218.642C444.576 226.033 453.036 222.394 465.076 223.793C470.614 224.43 475.496 229.74 475.87 234.401H440.748C435.119 234.401 428.844 226.897 424.994 223.747C408.843 210.558 384.843 196.97 371.241 183.018C367.945 179.641 364.694 171.819 359.45 171.386C358.374 171.295 357.514 171.648 355.781 172.251C348.804 174.65 345.859 180.073 344.5 182.575C343.991 183.507 343.775 184.076 344.013 184.428C344.795 185.577 349.744 183.576 353.799 181.699C357.367 185.884 362.712 191.762 369.791 198.175C378.92 206.453 388.139 210.808 403.735 222.724C414.778 231.161 426.602 245.647 442.175 246.693C456.468 247.648 472.189 245.942 486.64 246.693C488.158 246.534 489.257 246.022 490.027 245.283C493.606 241.826 490.786 234.003 490.367 232.844C488.26 227.124 484.115 223.622 481.702 221.848C470.49 213.605 463.343 218.028 447.951 211.456C439.91 208.022 434.836 203.826 429.195 199.153C420.826 192.228 413.747 186.191 412.694 176.992C412.229 172.99 413.09 169.999 414.064 166.622C418.492 151.204 430.951 142.403 434.96 139.652C444.61 133.023 453.433 131.101 460.546 129.589C473.027 126.928 491.035 126.041 494.104 132.727C494.75 134.126 494.863 136.149 496.064 136.445C497.966 136.911 500.447 132.556 501.998 130.123C510.414 116.899 518.874 117.229 521.524 108.826L521.513 108.838Z" fill="#020202"/>
</g>
<defs>
<clipPath id="clip0_27_82">
<rect width="522" height="247" fill="white"/>
</clipPath>
</defs>
</svg>
