<?xml version="1.0" encoding="UTF-8"?>
<svg id="Layer_2" xmlns="http://www.w3.org/2000/svg" version="1.1" viewBox="0 0 460.89 217.23">
  <!-- Generator: Adobe Illustrator 30.0.0, SVG Export Plug-In . SVG Version: 2.1.1 Build 123)  -->
  <defs>
    <style>
      .st0 {
        fill: #020202;
      }

      .st1 {
        fill: #f47e20;
      }
    </style>
  </defs>
  <g id="Layer_1-2">
    <g>
      <path class="st1" d="M362.33,60.17c4.96,5.71,4.37,6.51,7.22,8.86,1.57,1.29,8.36,6.5,16.08,4.59,3.36-.83,8.99-3.52,9.51-8.2.23-2.08-.52-4.76-2.46-6.4-4.59-3.88-13.07.35-14.27-2.13-.39-.82.24-1.87.49-2.3,2.92-4.88,14.73-5.62,23.62-4.43,21.02,2.81,33.56,17.42,38.88,23.62,6.37,7.42,7.12,11.34,6.71,14.3-.78,5.57-5.99,9.73-9.16,12.25-3.82,3.04-7.38,4.51-8.73,5.02-7.14,2.72-12.44,1.79-18.14,1.83-12.72.09-22.58,4.99-26,6.69-12.13,6.03-18.67,15.3-21.98,19.32-7.1,8.59-13.54,17.36-11.27,25.98.62,2.35,3.37,5.48,8.88,11.76,5.32,6.06,10.13,10.43,14.91,14.75,5.16,4.66,7.74,6.99,8.81,7.49,6.24,2.91,15.31,3.19,23.44,3.44.58.02,2.27.07,4.28.79,1.18.43,4.29,1.6,6.19,4.8.47.79,1.19,2.25,1.4,4.31h-31.01c-3.04-.26-4.92-1.25-6.08-2.13-.62-.47-.8-.72-2.54-2.4,0,0-.92-.88-3.81-3.53-5.44-4.98-19.48-14.26-19.48-14.26-8.09-5.35-27.92-18.45-33.6-27.81-.68-1.12-2.86-4.98-6.27-5.28-1.38-.12-2.5.36-3.24.76-2.06,1.09-3.61,1.86-5.17,3.05-2.33,1.78-3.84,3.68-4.49,4.54-.18.24-.3.42-.33.45-1.13,1.59-6.7,3.79-22.43,6.88-.22-2.58-1.71-17.38-13.85-26.1-.42-.3-8.36-5.86-18.78-5.88-1.97,0-7.65-.02-8.55,2.46-.23.65-.14,1.46.86,3.2,2.49,4.33,5.89,6.19,9.64,9.27,0,0,2.93,2.4,6.07,5.91,5.85,6.53,10.81,17.98,8,29.28-.52,2.08-1.55,5.17-3.82,8.63-.05.47-.04,1.14.34,1.72.89,1.34,3.2,1.25,3.99,1.22,6.45-.2,25.9.76,34.88,2.89,3.75.89,9.04,2.77,14.96,7.28l-292.94-.13c-1.38-.54-4.5-1.99-6.55-5.36-.74-1.22-3.18-5.25-1.37-8.61,1.45-2.69,4.72-3.3,5.38-3.43,4.13-.77,7.76,1.48,8.56,1.96,8.43,4.98,35.42,9.06,54.37,6.94,20.82-2.33,35.61-12.58,41.46-16.71,12.96-9.14,20.99-19.72,25.51-26.73.21.41.43.82.66,1.22,4.29,7.77,11.07,16.33,22.12,24.09,1.4,1.05,3.64,2.44,6.65,3.25,2.32.62,8.92,1.91,10.35-.51,1.36-2.31-3.1-6.15-9.33-16.45-2.38-3.93-4.07-7.25-5.09-9.33-2.85-5.85-6.39-14.41-8.67-25.2-1.93-9.12-5.64-27.39,1.01-48.43,1.24-3.92,6.26-18.74,18.87-32.37,33.62-36.34,92.69-31.05,117.27-24.11,15.2,4.29,33.29,14.03,34.35,14.61,7.27,3.97,11.55,7.1,15.03,10.12,4.53,3.94,8.16,8.08,8.69,8.69h-.03Z"/>
      <path class="st0" d="M292.11,186.36c-.7-.04-3.66.15-7.77.04-3.25-.08-5.86-.27-7.39-.4-2.27.21-3.83-1.17-3.83-2.33,0-.79.74-1.57,1.69-2.03.75-.21,1.85-.66,2.81-1.63,1.35-1.35,1.7-2.95,1.85-3.82.13-.73.14-1.23.14-3.29,0-.4-.02-3.55-.02-4.07-.06-10.75-6.92-23.27-17.87-28.54-7.27-3.5-16.17-3.57-17-1.38-.74,1.94,5.49,4,11.54,11.08,7.56,8.83,12.52,22.44,8.85,34.56-.94,3.11-2.83,5.59-3.82,8.63-.04.68.08,1.25.34,1.72.8,1.45,2.83,1.77,3.91,1.9,8.34.98,37.32-.86,41.19,6.64.26.51.59,1.41.42,2.82-160.81.34-278.63.33-284.64-.11-4.36-.32-7.09-2.57-7.09-2.57-1.86-1.54-2.89-3.52-3.49-5.24-.16-.33-2.24-4.77.29-8.97,2.18-3.62,6.11-4.27,7.34-4.4,3.56-.38,6.2,1.25,6.96,1.77,2.7,1.07,6.78,2.58,11.85,3.99,9.26,2.59,28.79,7.8,52.27,2.58,17.44-3.88,29.19-11.77,31.99-13.71,15.82-10.95,24.15-24.5,27.96-31.8,9.23,10.22,15.97,18.12,20.82,24.6,0,0,5.97,8,12.68,9.08.43.07,1.65.27,1.91-.21.34-.63-1.19-2.06-1.64-2.47-.72-.79-1.76-1.97-2.98-3.43-4.61-5.52-25.8-31.78-27.43-65.5-1.67-34.47,18.47-68.55,52.77-86.71,14.72-7.79,27.71-10.78,33.84-11.89,34.35-6.21,63.92,5.15,71.94,8.22,5.73,2.2,18.02,7.37,24.56,10.16,19.44,8.29,27.22,12.19,27.95,11.01,1.07-1.71-13.37-12.87-19.8-17.29-42.9-29.52-132.58-36.52-175.59,11.36-14.43,16.07-23.22,37.89-26.06,52.06-3.05,15.21-1.26,31.72-.96,33.83.71,5.02,1.68,6.41,2.13,8.86,0,1.36.22,2.36.24,2.44.16.86-1.06,18.61-18.97,33.27-7.42,6.07-14.29,8.82-20.15,11.12-16.02,6.27-29.78,6.52-36.98,6.54-11.95.04-21.51.07-33.17-3.99-6.09-2.12-10.33-4.51-17.13-3.91-1.99.18-12.42,1.1-16.79,8.89-4.77,8.52.98,19.4,5.81,24.87,4.82,5.46,10.74,7.5,13.62,8.27l299.13-.04c1.16-.15,2.02-.56,2.63-1.17,3.29-3.23-.77-12.16-2.45-15.13-6.8-12.04-24.03-13.92-28.41-14.28Z"/>
      <path class="st0" d="M460.46,95.72c.45-1.41,1.68-6.05-3.95-16.94-4.26-8.23-13.59-26.27-34.45-34.45-23.66-9.28-54.3-2.79-57.17,8.12-1.96,7.49,8.55,19.38,17.11,19.09,4.3-.14,10.17-2.92,10.26-6.61.03-1.3-.68-2.31-.85-2.53-3.32-4.29-13.28.69-15.85-2.73-1.39-1.86-.08-5.53,1.46-7.72,6.21-8.84,24.4-5.56,27.81-4.94,20.85,3.76,32.32,18.95,36.99,25.13,6.93,9.18,6.7,13.77,6.29,15.94-1.09,5.77-6.36,10.01-9.16,12.25-3.85,3.09-7.45,4.54-8.73,5.02-7.29,2.73-12.58.99-18.7,1.45-23.47,1.75-34.95,10.24-47.99,26.01-5.85,7.08-14.4,17.04-11.27,25.98,2.62,7.51,23.68,28.12,31.19,33.5,9.08,6.5,16.55,3.3,27.18,4.53,4.89.56,9.2,5.23,9.53,9.33h-31.01c-4.97,0-10.51-6.6-13.91-9.37-14.26-11.6-35.45-23.55-47.46-35.82-2.91-2.97-5.78-9.85-10.41-10.23-.95-.08-1.71.23-3.24.76-6.16,2.11-8.76,6.88-9.96,9.08-.45.82-.64,1.32-.43,1.63.69,1.01,5.06-.75,8.64-2.4,3.15,3.68,7.87,8.85,14.12,14.49,8.06,7.28,16.2,11.11,29.97,21.59,9.75,7.42,20.19,20.16,33.94,21.08,12.62.84,26.5-.66,39.26,0,1.34-.14,2.31-.59,2.99-1.24,3.16-3.04.67-9.92.3-10.94-1.86-5.03-5.52-8.11-7.65-9.67-9.9-7.25-16.21-3.36-29.8-9.14-7.1-3.02-11.58-6.71-16.56-10.82-7.39-6.09-13.64-11.4-14.57-19.49-.41-3.52.35-6.15,1.21-9.12,3.91-13.56,14.91-21.3,18.45-23.72,8.52-5.83,16.31-7.52,22.59-8.85,11.02-2.34,26.92-3.12,29.63,2.76.57,1.23.67,3.01,1.73,3.27,1.68.41,3.87-3.42,5.24-5.56,7.43-11.63,14.9-11.34,17.24-18.73h0Z"/>
    </g>
  </g>
</svg>