<svg width="177" height="96" viewBox="0 0 177 96" fill="none" xmlns="http://www.w3.org/2000/svg">
<path d="M45.0355 57.2983L47.9959 56.8127L47.9812 56.7228L47.961 56.6339L45.0355 57.2983ZM46.0253 40.2044L48.8758 41.1396L48.8758 41.1396L46.0253 40.2044ZM74.2311 6.51934L73.2185 3.69541L73.2185 3.69541L74.2311 6.51934ZM96.4989 3L96.6258 0.00268461L96.5624 0H96.4989V3ZM134.602 17.5801L136.74 15.4757L136.552 15.2848L136.333 15.1303L134.602 17.5801ZM138.56 19.5912L137.497 22.3966L138.011 22.5912H138.56V19.5912ZM160.828 21.6022L159.146 24.0861L160.828 21.6022ZM169.24 29.1436L166.626 30.6143L166.626 30.6143L169.24 29.1436ZM173.199 36.1823L176.001 35.1099L175.922 34.9039L175.814 34.7117L173.199 36.1823ZM167.756 49.7569L166.302 47.1329L166.043 47.2763L165.817 47.4673L167.756 49.7569ZM163.302 52.7735L164.265 55.6149L163.302 52.7735ZM151.426 53.2762L150.297 50.497L150.297 50.497L151.426 53.2762ZM141.529 63.3315L138.974 61.7596L138.9 61.88L138.838 62.0068L141.529 63.3315ZM139.55 73.3867H136.55V74.5194L137.299 75.3694L139.55 73.3867ZM147.962 82.9392L145.711 84.9219L146.607 85.9392H147.962V82.9392ZM165 92.4917V95.4917H165.147L165.293 95.4774L165 92.4917ZM143.014 92.4917L141.275 94.9365L142.056 95.4917H143.014V92.4917ZM118.272 74.895L120.011 72.4503L117.896 70.9467L116.104 72.8217L118.272 74.895ZM98.9731 82.9392L96.8997 85.1074L97.7696 85.9392H98.9731V82.9392ZM108.87 82.9392L109.999 80.16L109.456 79.9392H108.87V82.9392ZM115.798 92.4917V95.4917H119.279L118.765 92.0483L115.798 92.4917ZM4.95351 87.4641L2.53989 85.6824L4.95351 87.4641ZM40.582 68.8619L43.1372 70.4337L43.1372 70.4337L40.582 68.8619ZM3 89.4917C1.34315 89.4917 0 90.8349 0 92.4917C0 94.1486 1.34315 95.4917 3 95.4917V92.4917V89.4917ZM53.9427 80.4254L56.5179 78.8865C50.0407 68.0473 48.4517 59.5909 47.9959 56.8127L45.0355 57.2983L42.0751 57.784C42.609 61.039 44.3851 70.2798 51.3675 81.9643L53.9427 80.4254ZM45.0355 57.2983L47.961 56.6339C47.5261 54.7192 46.3428 48.8604 48.8758 41.1396L46.0253 40.2044L43.1748 39.2692C40.1656 48.4413 41.5552 55.5202 42.11 57.9628L45.0355 57.2983ZM46.0253 40.2044L48.8758 41.1396C52.3455 30.5639 55.1422 24.6602 58.555 21.1928L56.4169 19.0884L54.2788 16.984C49.7741 21.5608 46.6328 28.7289 43.1748 39.2692L46.0253 40.2044ZM56.4169 19.0884L58.555 21.1928C62.5259 17.1583 67.3534 12.1727 75.2438 9.34326L74.2311 6.51934L73.2185 3.69541C63.9005 7.03678 58.2253 12.9743 54.2788 16.984L56.4169 19.0884ZM74.2311 6.51934L75.2438 9.34326C79.4348 7.84039 81.9334 7.04469 84.733 6.58958C87.5635 6.12945 90.8122 6 96.4989 6V3V0C90.8043 0 87.1252 0.121934 83.7702 0.667324C80.3843 1.21774 77.4397 2.18171 73.2185 3.69541L74.2311 6.51934ZM96.4989 3L96.372 5.99732C100.272 6.16242 109.236 7.09093 114.668 9.29859L115.798 6.51934L116.927 3.74009C110.483 1.12122 100.643 0.172752 96.6258 0.00268461L96.4989 3ZM115.798 6.51934L114.668 9.29859C120.253 11.5681 129.074 17.3473 132.87 20.03L134.602 17.5801L136.333 15.1303C132.541 12.4501 123.219 6.29705 116.927 3.74009L115.798 6.51934ZM134.602 17.5801L132.463 19.6845C133.188 20.4204 134.207 20.9622 134.935 21.3151C135.763 21.7163 136.682 22.0876 137.497 22.3966L138.56 19.5912L139.623 16.7858C138.878 16.5035 138.148 16.2045 137.551 15.9156C137.254 15.7715 137.024 15.6463 136.86 15.5446C136.676 15.4303 136.668 15.4025 136.74 15.4757L134.602 17.5801ZM138.56 19.5912V22.5912H153.405V19.5912V16.5912H138.56V19.5912ZM153.405 19.5912V22.5912C153.932 22.5912 154.978 22.6684 156.139 22.9235C157.321 23.1833 158.396 23.5786 159.146 24.0861L160.828 21.6022L162.51 19.1184C160.884 18.017 158.99 17.4068 157.426 17.0632C155.841 16.715 154.364 16.5912 153.405 16.5912V19.5912ZM160.828 21.6022L159.146 24.0861C162.397 26.2886 165.079 27.8645 166.626 30.6143L169.24 29.1436L171.855 27.673C169.443 23.3841 165.197 20.9379 162.51 19.1184L160.828 21.6022ZM169.24 29.1436L166.626 30.6143L170.584 37.653L173.199 36.1823L175.814 34.7117L171.855 27.673L169.24 29.1436ZM173.199 36.1823L170.397 37.2547C170.447 37.3855 170.559 37.9271 170.461 38.9539C170.371 39.9099 170.122 41.0451 169.715 42.195C168.852 44.6345 167.536 46.4487 166.302 47.1329L167.756 49.7569L169.21 52.3809C172.33 50.6518 174.313 47.187 175.372 44.1967C175.925 42.6317 176.293 41.0143 176.435 39.5193C176.569 38.0952 176.528 36.4874 176.001 35.1099L173.199 36.1823ZM167.756 49.7569L165.817 47.4673C165.375 47.8422 164.625 48.4426 163.863 48.985C163.483 49.2558 163.127 49.4928 162.823 49.674C162.488 49.8735 162.337 49.933 162.34 49.932L163.302 52.7735L164.265 55.6149C165.33 55.2541 166.526 54.4544 167.344 53.8722C168.264 53.2163 169.147 52.5096 169.694 52.0465L167.756 49.7569ZM163.302 52.7735L162.34 49.932C162.637 49.8315 162.793 49.859 162.598 49.8571C162.448 49.8556 162.212 49.8393 161.84 49.7988C161.213 49.7309 160.019 49.566 158.923 49.4706C156.596 49.2679 153.43 49.2237 150.297 50.497L151.426 53.2762L152.556 56.0555C154.371 55.3178 156.4 55.2735 158.403 55.4479C159.472 55.5411 160.226 55.659 161.193 55.7638C161.616 55.8098 162.088 55.8524 162.539 55.8568C162.946 55.8608 163.597 55.8411 164.265 55.6149L163.302 52.7735ZM151.426 53.2762L150.297 50.497C147.657 51.5697 145.218 53.847 143.378 55.8989C141.471 58.0256 139.881 60.2847 138.974 61.7596L141.529 63.3315L144.085 64.9034C144.827 63.6968 146.206 61.7328 147.845 59.9044C149.552 58.0013 151.236 56.5917 152.556 56.0555L151.426 53.2762ZM141.529 63.3315L138.838 62.0068C138.456 62.7819 137.91 64.0335 137.451 65.3839C137.018 66.6614 136.55 68.3473 136.55 69.8674H139.55H142.55C142.55 69.3765 142.742 68.4648 143.133 67.3122C143.499 66.2327 143.943 65.2218 144.221 64.6561L141.529 63.3315ZM139.55 69.8674H136.55C136.55 69.8713 136.55 69.8753 136.55 69.8792C136.55 69.8831 136.55 69.887 136.55 69.8909C136.55 69.8948 136.55 69.8988 136.55 69.9027C136.55 69.9066 136.55 69.9105 136.55 69.9144C136.55 69.9183 136.55 69.9222 136.55 69.9261C136.55 69.93 136.55 69.9339 136.55 69.9378C136.55 69.9416 136.55 69.9455 136.55 69.9494C136.55 69.9533 136.55 69.9572 136.55 69.9611C136.55 69.9649 136.55 69.9688 136.55 69.9727C136.55 69.9765 136.55 69.9804 136.55 69.9843C136.55 69.9881 136.55 69.992 136.55 69.9959C136.55 69.9997 136.55 70.0036 136.55 70.0074C136.55 70.0113 136.55 70.0151 136.55 70.019C136.55 70.0228 136.55 70.0267 136.55 70.0305C136.55 70.0343 136.55 70.0382 136.55 70.042C136.55 70.0458 136.55 70.0497 136.55 70.0535C136.55 70.0573 136.55 70.0611 136.55 70.0649C136.55 70.0688 136.55 70.0726 136.55 70.0764C136.55 70.0802 136.55 70.084 136.55 70.0878C136.55 70.0916 136.55 70.0954 136.55 70.0992C136.55 70.103 136.55 70.1068 136.55 70.1106C136.55 70.1144 136.55 70.1182 136.55 70.122C136.55 70.1258 136.55 70.1296 136.55 70.1333C136.55 70.1371 136.55 70.1409 136.55 70.1447C136.55 70.1485 136.55 70.1522 136.55 70.156C136.55 70.1598 136.55 70.1635 136.55 70.1673C136.55 70.1711 136.55 70.1748 136.55 70.1786C136.55 70.1823 136.55 70.1861 136.55 70.1898C136.55 70.1936 136.55 70.1973 136.55 70.2011C136.55 70.2048 136.55 70.2085 136.55 70.2123C136.55 70.216 136.55 70.2197 136.55 70.2235C136.55 70.2272 136.55 70.2309 136.55 70.2347C136.55 70.2384 136.55 70.2421 136.55 70.2458C136.55 70.2495 136.55 70.2532 136.55 70.257C136.55 70.2607 136.55 70.2644 136.55 70.2681C136.55 70.2718 136.55 70.2755 136.55 70.2792C136.55 70.2829 136.55 70.2866 136.55 70.2903C136.55 70.294 136.55 70.2976 136.55 70.3013C136.55 70.305 136.55 70.3087 136.55 70.3124C136.55 70.3161 136.55 70.3197 136.55 70.3234C136.55 70.3271 136.55 70.3307 136.55 70.3344C136.55 70.3381 136.55 70.3417 136.55 70.3454C136.55 70.3491 136.55 70.3527 136.55 70.3564C136.55 70.36 136.55 70.3637 136.55 70.3673C136.55 70.371 136.55 70.3746 136.55 70.3782C136.55 70.3819 136.55 70.3855 136.55 70.3892C136.55 70.3928 136.55 70.3964 136.55 70.4C136.55 70.4037 136.55 70.4073 136.55 70.4109C136.55 70.4145 136.55 70.4182 136.55 70.4218C136.55 70.4254 136.55 70.429 136.55 70.4326C136.55 70.4362 136.55 70.4398 136.55 70.4434C136.55 70.447 136.55 70.4506 136.55 70.4542C136.55 70.4578 136.55 70.4614 136.55 70.465C136.55 70.4686 136.55 70.4722 136.55 70.4757C136.55 70.4793 136.55 70.4829 136.55 70.4865C136.55 70.4901 136.55 70.4936 136.55 70.4972C136.55 70.5008 136.55 70.5043 136.55 70.5079C136.55 70.5115 136.55 70.515 136.55 70.5186C136.55 70.5221 136.55 70.5257 136.55 70.5292C136.55 70.5328 136.55 70.5363 136.55 70.5399C136.55 70.5434 136.55 70.547 136.55 70.5505C136.55 70.5541 136.55 70.5576 136.55 70.5611C136.55 70.5646 136.55 70.5682 136.55 70.5717C136.55 70.5752 136.55 70.5787 136.55 70.5823C136.55 70.5858 136.55 70.5893 136.55 70.5928C136.55 70.5963 136.55 70.5998 136.55 70.6033C136.55 70.6068 136.55 70.6103 136.55 70.6138C136.55 70.6173 136.55 70.6208 136.55 70.6243C136.55 70.6278 136.55 70.6313 136.55 70.6348C136.55 70.6383 136.55 70.6418 136.55 70.6453C136.55 70.6487 136.55 70.6522 136.55 70.6557C136.55 70.6592 136.55 70.6626 136.55 70.6661C136.55 70.6696 136.55 70.673 136.55 70.6765C136.55 70.68 136.55 70.6834 136.55 70.6869C136.55 70.6903 136.55 70.6938 136.55 70.6972C136.55 70.7007 136.55 70.7041 136.55 70.7076C136.55 70.711 136.55 70.7144 136.55 70.7179C136.55 70.7213 136.55 70.7247 136.55 70.7282C136.55 70.7316 136.55 70.735 136.55 70.7384C136.55 70.7419 136.55 70.7453 136.55 70.7487C136.55 70.7521 136.55 70.7555 136.55 70.7589C136.55 70.7624 136.55 70.7658 136.55 70.7692C136.55 70.7726 136.55 70.776 136.55 70.7794C136.55 70.7828 136.55 70.7862 136.55 70.7896C136.55 70.7929 136.55 70.7963 136.55 70.7997C136.55 70.8031 136.55 70.8065 136.55 70.8099C136.55 70.8132 136.55 70.8166 136.55 70.82C136.55 70.8234 136.55 70.8267 136.55 70.8301C136.55 70.8335 136.55 70.8368 136.55 70.8402C136.55 70.8435 136.55 70.8469 136.55 70.8502C136.55 70.8536 136.55 70.8569 136.55 70.8603C136.55 70.8636 136.55 70.867 136.55 70.8703C136.55 70.8737 136.55 70.877 136.55 70.8803C136.55 70.8837 136.55 70.887 136.55 70.8903C136.55 70.8936 136.55 70.897 136.55 70.9003C136.55 70.9036 136.55 70.9069 136.55 70.9102C136.55 70.9136 136.55 70.9169 136.55 70.9202C136.55 70.9235 136.55 70.9268 136.55 70.9301C136.55 70.9334 136.55 70.9367 136.55 70.94C136.55 70.9433 136.55 70.9466 136.55 70.9499C136.55 70.9531 136.55 70.9564 136.55 70.9597C136.55 70.963 136.55 70.9663 136.55 70.9695C136.55 70.9728 136.55 70.9761 136.55 70.9794C136.55 70.9826 136.55 70.9859 136.55 70.9892C136.55 70.9924 136.55 70.9957 136.55 70.9989C136.55 71.0022 136.55 71.0055 136.55 71.0087C136.55 71.012 136.55 71.0152 136.55 71.0184C136.55 71.0217 136.55 71.0249 136.55 71.0282C136.55 71.0314 136.55 71.0346 136.55 71.0379C136.55 71.0411 136.55 71.0443 136.55 71.0476C136.55 71.0508 136.55 71.054 136.55 71.0572C136.55 71.0604 136.55 71.0637 136.55 71.0669C136.55 71.0701 136.55 71.0733 136.55 71.0765C136.55 71.0797 136.55 71.0829 136.55 71.0861C136.55 71.0893 136.55 71.0925 136.55 71.0957C136.55 71.0989 136.55 71.1021 136.55 71.1053C136.55 71.1084 136.55 71.1116 136.55 71.1148C136.55 71.118 136.55 71.1212 136.55 71.1243C136.55 71.1275 136.55 71.1307 136.55 71.1338C136.55 71.137 136.55 71.1402 136.55 71.1433C136.55 71.1465 136.55 71.1497 136.55 71.1528C136.55 71.156 136.55 71.1591 136.55 71.1623C136.55 71.1654 136.55 71.1686 136.55 71.1717C136.55 71.1748 136.55 71.178 136.55 71.1811C136.55 71.1842 136.55 71.1874 136.55 71.1905C136.55 71.1936 136.55 71.1968 136.55 71.1999C136.55 71.203 136.55 71.2061 136.55 71.2092C136.55 71.2124 136.55 71.2155 136.55 71.2186C136.55 71.2217 136.55 71.2248 136.55 71.2279C136.55 71.231 136.55 71.2341 136.55 71.2372C136.55 71.2403 136.55 71.2434 136.55 71.2465C136.55 71.2496 136.55 71.2527 136.55 71.2557C136.55 71.2588 136.55 71.2619 136.55 71.265C136.55 71.2681 136.55 71.2711 136.55 71.2742C136.55 71.2773 136.55 71.2803 136.55 71.2834C136.55 71.2865 136.55 71.2895 136.55 71.2926C136.55 71.2956 136.55 71.2987 136.55 71.3018C136.55 71.3048 136.55 71.3079 136.55 71.3109C136.55 71.3139 136.55 71.317 136.55 71.32C136.55 71.3231 136.55 71.3261 136.55 71.3291C136.55 71.3322 136.55 71.3352 136.55 71.3382C136.55 71.3413 136.55 71.3443 136.55 71.3473C136.55 71.3503 136.55 71.3533 136.55 71.3563C136.55 71.3594 136.55 71.3624 136.55 71.3654C136.55 71.3684 136.55 71.3714 136.55 71.3744C136.55 71.3774 136.55 71.3804 136.55 71.3834C136.55 71.3864 136.55 71.3894 136.55 71.3924C136.55 71.3953 136.55 71.3983 136.55 71.4013C136.55 71.4043 136.55 71.4073 136.55 71.4102C136.55 71.4132 136.55 71.4162 136.55 71.4192C136.55 71.4221 136.55 71.4251 136.55 71.4281C136.55 71.431 136.55 71.434 136.55 71.4369C136.55 71.4399 136.55 71.4428 136.55 71.4458C136.55 71.4487 136.55 71.4517 136.55 71.4546C136.55 71.4576 136.55 71.4605 136.55 71.4635C136.55 71.4664 136.55 71.4693 136.55 71.4723C136.55 71.4752 136.55 71.4781 136.55 71.481C136.55 71.484 136.55 71.4869 136.55 71.4898C136.55 71.4927 136.55 71.4956 136.55 71.4985C136.55 71.5015 136.55 71.5044 136.55 71.5073C136.55 71.5102 136.55 71.5131 136.55 71.516C136.55 71.5189 136.55 71.5218 136.55 71.5247C136.55 71.5276 136.55 71.5304 136.55 71.5333C136.55 71.5362 136.55 71.5391 136.55 71.542C136.55 71.5449 136.55 71.5477 136.55 71.5506C136.55 71.5535 136.55 71.5563 136.55 71.5592C136.55 71.5621 136.55 71.5649 136.55 71.5678C136.55 71.5707 136.55 71.5735 136.55 71.5764C136.55 71.5792 136.55 71.5821 136.55 71.5849C136.55 71.5878 136.55 71.5906 136.55 71.5935C136.55 71.5963 136.55 71.5991 136.55 71.602C136.55 71.6048 136.55 71.6076 136.55 71.6105C136.55 71.6133 136.55 71.6161 136.55 71.6189C136.55 71.6218 136.55 71.6246 136.55 71.6274C136.55 71.6302 136.55 71.633 136.55 71.6358C136.55 71.6386 136.55 71.6415 136.55 71.6443C136.55 71.6471 136.55 71.6499 136.55 71.6527C136.55 71.6554 136.55 71.6582 136.55 71.661C136.55 71.6638 136.55 71.6666 136.55 71.6694C136.55 71.6722 136.55 71.675 136.55 71.6777C136.55 71.6805 136.55 71.6833 136.55 71.6861C136.55 71.6888 136.55 71.6916 136.55 71.6944C136.55 71.6971 136.55 71.6999 136.55 71.7026C136.55 71.7054 136.55 71.7082 136.55 71.7109C136.55 71.7137 136.55 71.7164 136.55 71.7192C136.55 71.7219 136.55 71.7246 136.55 71.7274C136.55 71.7301 136.55 71.7329 136.55 71.7356C136.55 71.7383 136.55 71.741 136.55 71.7438C136.55 71.7465 136.55 71.7492 136.55 71.7519C136.55 71.7547 136.55 71.7574 136.55 71.7601C136.55 71.7628 136.55 71.7655 136.55 71.7682C136.55 71.7709 136.55 71.7736 136.55 71.7763C136.55 71.779 136.55 71.7817 136.55 71.7844C136.55 71.7871 136.55 71.7898 136.55 71.7925C136.55 71.7952 136.55 71.7979 136.55 71.8005C136.55 71.8032 136.55 71.8059 136.55 71.8086C136.55 71.8113 136.55 71.8139 136.55 71.8166C136.55 71.8193 136.55 71.8219 136.55 71.8246C136.55 71.8273 136.55 71.8299 136.55 71.8326C136.55 71.8352 136.55 71.8379 136.55 71.8405C136.55 71.8432 136.55 71.8458 136.55 71.8485C136.55 71.8511 136.55 71.8537 136.55 71.8564C136.55 71.859 136.55 71.8617 136.55 71.8643C136.55 71.8669 136.55 71.8695 136.55 71.8722C136.55 71.8748 136.55 71.8774 136.55 71.88C136.55 71.8826 136.55 71.8853 136.55 71.8879C136.55 71.8905 136.55 71.8931 136.55 71.8957C136.55 71.8983 136.55 71.9009 136.55 71.9035C136.55 71.9061 136.55 71.9087 136.55 71.9113C136.55 71.9139 136.55 71.9165 136.55 71.919C136.55 71.9216 136.55 71.9242 136.55 71.9268C136.55 71.9294 136.55 71.9319 136.55 71.9345C136.55 71.9371 136.55 71.9397 136.55 71.9422C136.55 71.9448 136.55 71.9474 136.55 71.9499C136.55 71.9525 136.55 71.955 136.55 71.9576C136.55 71.9601 136.55 71.9627 136.55 71.9652C136.55 71.9678 136.55 71.9703 136.55 71.9729C136.55 71.9754 136.55 71.9779 136.55 71.9805C136.55 71.983 136.55 71.9855 136.55 71.9881C136.55 71.9906 136.55 71.9931 136.55 71.9956C136.55 71.9982 136.55 72.0007 136.55 72.0032C136.55 72.0057 136.55 72.0082 136.55 72.0107C136.55 72.0132 136.55 72.0157 136.55 72.0182C136.55 72.0208 136.55 72.0233 136.55 72.0257C136.55 72.0282 136.55 72.0307 136.55 72.0332C136.55 72.0357 136.55 72.0382 136.55 72.0407C136.55 72.0432 136.55 72.0456 136.55 72.0481C136.55 72.0506 136.55 72.0531 136.55 72.0555C136.55 72.058 136.55 72.0605 136.55 72.0629C136.55 72.0654 136.55 72.0679 136.55 72.0703C136.55 72.0728 136.55 72.0752 136.55 72.0777C136.55 72.0801 136.55 72.0826 136.55 72.085C136.55 72.0875 136.55 72.0899 136.55 72.0924C136.55 72.0948 136.55 72.0972 136.55 72.0997C136.55 72.1021 136.55 72.1045 136.55 72.1069C136.55 72.1094 136.55 72.1118 136.55 72.1142C136.55 72.1166 136.55 72.119 136.55 72.1215C136.55 72.1239 136.55 72.1263 136.55 72.1287C136.55 72.1311 136.55 72.1335 136.55 72.1359C136.55 72.1383 136.55 72.1407 136.55 72.1431C136.55 72.1455 136.55 72.1479 136.55 72.1503C136.55 72.1526 136.55 72.155 136.55 72.1574C136.55 72.1598 136.55 72.1622 136.55 72.1645C136.55 72.1669 136.55 72.1693 136.55 72.1717C136.55 72.174 136.55 72.1764 136.55 72.1788C136.55 72.1811 136.55 72.1835 136.55 72.1858C136.55 72.1882 136.55 72.1905 136.55 72.1929C136.55 72.1952 136.55 72.1976 136.55 72.1999C136.55 72.2023 136.55 72.2046 136.55 72.2069C136.55 72.2093 136.55 72.2116 136.55 72.2139C136.55 72.2163 136.55 72.2186 136.55 72.2209C136.55 72.2232 136.55 72.2256 136.55 72.2279C136.55 72.2302 136.55 72.2325 136.55 72.2348C136.55 72.2371 136.55 72.2394 136.55 72.2417C136.55 72.244 136.55 72.2463 136.55 72.2486C136.55 72.2509 136.55 72.2532 136.55 72.2555C136.55 72.2578 136.55 72.2601 136.55 72.2624C136.55 72.2647 136.55 72.267 136.55 72.2692C136.55 72.2715 136.55 72.2738 136.55 72.2761C136.55 72.2783 136.55 72.2806 136.55 72.2829C136.55 72.2851 136.55 72.2874 136.55 72.2897C136.55 72.2919 136.55 72.2942 136.55 72.2964C136.55 72.2987 136.55 72.3009 136.55 72.3032C136.55 72.3054 136.55 72.3077 136.55 72.3099C136.55 72.3121 136.55 72.3144 136.55 72.3166C136.55 72.3188 136.55 72.3211 136.55 72.3233C136.55 72.3255 136.55 72.3278 136.55 72.33C136.55 72.3322 136.55 72.3344 136.55 72.3366C136.55 72.3388 136.55 72.3411 136.55 72.3433C136.55 72.3455 136.55 72.3477 136.55 72.3499C136.55 72.3521 136.55 72.3543 136.55 72.3565C136.55 72.3587 136.55 72.3609 136.55 72.363C136.55 72.3652 136.55 72.3674 136.55 72.3696C136.55 72.3718 136.55 72.374 136.55 72.3761C136.55 72.3783 136.55 72.3805 136.55 72.3827C136.55 72.3848 136.55 72.387 136.55 72.3892C136.55 72.3913 136.55 72.3935 136.55 72.3956C136.55 72.3978 136.55 72.4 136.55 72.4021C136.55 72.4043 136.55 72.4064 136.55 72.4085C136.55 72.4107 136.55 72.4128 136.55 72.415C136.55 72.4171 136.55 72.4192 136.55 72.4214C136.55 72.4235 136.55 72.4256 136.55 72.4278C136.55 72.4299 136.55 72.432 136.55 72.4341C136.55 72.4362 136.55 72.4384 136.55 72.4405C136.55 72.4426 136.55 72.4447 136.55 72.4468C136.55 72.4489 136.55 72.451 136.55 72.4531C136.55 72.4552 136.55 72.4573 136.55 72.4594C136.55 72.4615 136.55 72.4636 136.55 72.4657C136.55 72.4678 136.55 72.4698 136.55 72.4719C136.55 72.474 136.55 72.4761 136.55 72.4781C136.55 72.4802 136.55 72.4823 136.55 72.4844C136.55 72.4864 136.55 72.4885 136.55 72.4906C136.55 72.4926 136.55 72.4947 136.55 72.4967C136.55 72.4988 136.55 72.5008 136.55 72.5029C136.55 72.5049 136.55 72.507 136.55 72.509C136.55 72.5111 136.55 72.5131 136.55 72.5151C136.55 72.5172 136.55 72.5192 136.55 72.5212C136.55 72.5233 136.55 72.5253 136.55 72.5273C136.55 72.5293 136.55 72.5313 136.55 72.5334C136.55 72.5354 136.55 72.5374 136.55 72.5394C136.55 72.5414 136.55 72.5434 136.55 72.5454C136.55 72.5474 136.55 72.5494 136.55 72.5514C136.55 72.5534 136.55 72.5554 136.55 72.5574C136.55 72.5594 136.55 72.5614 136.55 72.5634C136.55 72.5654 136.55 72.5673 136.55 72.5693C136.55 72.5713 136.55 72.5733 136.55 72.5752C136.55 72.5772 136.55 72.5792 136.55 72.5811C136.55 72.5831 136.55 72.5851 136.55 72.587C136.55 72.589 136.55 72.5909 136.55 72.5929C136.55 72.5948 136.55 72.5968 136.55 72.5987C136.55 72.6007 136.55 72.6026 136.55 72.6046C136.55 72.6065 136.55 72.6084 136.55 72.6104C136.55 72.6123 136.55 72.6142 136.55 72.6162C136.55 72.6181 136.55 72.62 136.55 72.6219C136.55 72.6239 136.55 72.6258 136.55 72.6277C136.55 72.6296 136.55 72.6315 136.55 72.6334C136.55 72.6353 136.55 72.6372 136.55 72.6391C136.55 72.641 136.55 72.6429 136.55 72.6448C136.55 72.6467 136.55 72.6486 136.55 72.6505C136.55 72.6524 136.55 72.6543 136.55 72.6562C136.55 72.658 136.55 72.6599 136.55 72.6618C136.55 72.6637 136.55 72.6655 136.55 72.6674C136.55 72.6693 136.55 72.6712 136.55 72.673C136.55 72.6749 136.55 72.6767 136.55 72.6786C136.55 72.6805 136.55 72.6823 136.55 72.6842C136.55 72.686 136.55 72.6879 136.55 72.6897C136.55 72.6915 136.55 72.6934 136.55 72.6952C136.55 72.6971 136.55 72.6989 136.55 72.7007C136.55 72.7026 136.55 72.7044 136.55 72.7062C136.55 72.708 136.55 72.7098 136.55 72.7117C136.55 72.7135 136.55 72.7153 136.55 72.7171C136.55 72.7189 136.55 72.7207 136.55 72.7225C136.55 72.7243 136.55 72.7261 136.55 72.7279C136.55 72.7297 136.55 72.7315 136.55 72.7333C136.55 72.7351 136.55 72.7369 136.55 72.7387C136.55 72.7405 136.55 72.7423 136.55 72.744C136.55 72.7458 136.55 72.7476 136.55 72.7494C136.55 72.7512 136.55 72.7529 136.55 72.7547C136.55 72.7565 136.55 72.7582 136.55 72.76C136.55 72.7617 136.55 72.7635 136.55 72.7653C136.55 72.767 136.55 72.7688 136.55 72.7705C136.55 72.7723 136.55 72.774 136.55 72.7757C136.55 72.7775 136.55 72.7792 136.55 72.781C136.55 72.7827 136.55 72.7844 136.55 72.7862C136.55 72.7879 136.55 72.7896 136.55 72.7913C136.55 72.793 136.55 72.7948 136.55 72.7965C136.55 72.7982 136.55 72.7999 136.55 72.8016C136.55 72.8033 136.55 72.805 136.55 72.8067C136.55 72.8084 136.55 72.8101 136.55 72.8118C136.55 72.8135 136.55 72.8152 136.55 72.8169C136.55 72.8186 136.55 72.8203 136.55 72.822C136.55 72.8237 136.55 72.8253 136.55 72.827C136.55 72.8287 136.55 72.8304 136.55 72.832C136.55 72.8337 136.55 72.8354 136.55 72.8371C136.55 72.8387 136.55 72.8404 136.55 72.842C136.55 72.8437 136.55 72.8453 136.55 72.847C136.55 72.8487 136.55 72.8503 136.55 72.8519C136.55 72.8536 136.55 72.8552 136.55 72.8569C136.55 72.8585 136.55 72.8601 136.55 72.8618C136.55 72.8634 136.55 72.865 136.55 72.8667C136.55 72.8683 136.55 72.8699 136.55 72.8715C136.55 72.8732 136.55 72.8748 136.55 72.8764C136.55 72.878 136.55 72.8796 136.55 72.8812C136.55 72.8828 136.55 72.8844 136.55 72.886C136.55 72.8876 136.55 72.8892 136.55 72.8908C136.55 72.8924 136.55 72.894 136.55 72.8956C136.55 72.8972 136.55 72.8988 136.55 72.9004C136.55 72.9019 136.55 72.9035 136.55 72.9051C136.55 72.9067 136.55 72.9082 136.55 72.9098C136.55 72.9114 136.55 72.9129 136.55 72.9145C136.55 72.9161 136.55 72.9176 136.55 72.9192C136.55 72.9207 136.55 72.9223 136.55 72.9238C136.55 72.9254 136.55 72.9269 136.55 72.9285C136.55 72.93 136.55 72.9316 136.55 72.9331C136.55 72.9346 136.55 72.9362 136.55 72.9377C136.55 72.9392 136.55 72.9408 136.55 72.9423C136.55 72.9438 136.55 72.9453 136.55 72.9468C136.55 72.9484 136.55 72.9499 136.55 72.9514C136.55 72.9529 136.55 72.9544 136.55 72.9559C136.55 72.9574 136.55 72.9589 136.55 72.9604C136.55 72.9619 136.55 72.9634 136.55 72.9649C136.55 72.9664 136.55 72.9679 136.55 72.9694C136.55 72.9709 136.55 72.9723 136.55 72.9738C136.55 72.9753 136.55 72.9768 136.55 72.9782C136.55 72.9797 136.55 72.9812 136.55 72.9827C136.55 72.9841 136.55 72.9856 136.55 72.987C136.55 72.9885 136.55 72.99 136.55 72.9914C136.55 72.9929 136.55 72.9943 136.55 72.9958C136.55 72.9972 136.55 72.9987 136.55 73.0001C136.55 73.0015 136.55 73.003 136.55 73.0044C136.55 73.0058 136.55 73.0073 136.55 73.0087C136.55 73.0101 136.55 73.0116 136.55 73.013C136.55 73.0144 136.55 73.0158 136.55 73.0172C136.55 73.0187 136.55 73.0201 136.55 73.0215C136.55 73.0229 136.55 73.0243 136.55 73.0257C136.55 73.0271 136.55 73.0285 136.55 73.0299C136.55 73.0313 136.55 73.0327 136.55 73.0341C136.55 73.0355 136.55 73.0368 136.55 73.0382C136.55 73.0396 136.55 73.041 136.55 73.0424C136.55 73.0437 136.55 73.0451 136.55 73.0465C136.55 73.0479 136.55 73.0492 136.55 73.0506C136.55 73.052 136.55 73.0533 136.55 73.0547C136.55 73.056 136.55 73.0574 136.55 73.0587C136.55 73.0601 136.55 73.0614 136.55 73.0628C136.55 73.0641 136.55 73.0655 136.55 73.0668C136.55 73.0682 136.55 73.0695 136.55 73.0708C136.55 73.0722 136.55 73.0735 136.55 73.0748C136.55 73.0761 136.55 73.0775 136.55 73.0788C136.55 73.0801 136.55 73.0814 136.55 73.0827C136.55 73.084 136.55 73.0853 136.55 73.0867C136.55 73.088 136.55 73.0893 136.55 73.0906C136.55 73.0919 136.55 73.0932 136.55 73.0945C136.55 73.0957 136.55 73.097 136.55 73.0983C136.55 73.0996 136.55 73.1009 136.55 73.1022C136.55 73.1035 136.55 73.1047 136.55 73.106C136.55 73.1073 136.55 73.1086 136.55 73.1098C136.55 73.1111 136.55 73.1124 136.55 73.1136C136.55 73.1149 136.55 73.1161 136.55 73.1174C136.55 73.1187 136.55 73.1199 136.55 73.1212C136.55 73.1224 136.55 73.1237 136.55 73.1249C136.55 73.1261 136.55 73.1274 136.55 73.1286C136.55 73.1299 136.55 73.1311 136.55 73.1323C136.55 73.1335 136.55 73.1348 136.55 73.136C136.55 73.1372 136.55 73.1384 136.55 73.1397C136.55 73.1409 136.55 73.1421 136.55 73.1433C136.55 73.1445 136.55 73.1457 136.55 73.1469C136.55 73.1481 136.55 73.1493 136.55 73.1505C136.55 73.1517 136.55 73.1529 136.55 73.1541C136.55 73.1553 136.55 73.1565 136.55 73.1577C136.55 73.1589 136.55 73.16 136.55 73.1612C136.55 73.1624 136.55 73.1636 136.55 73.1647C136.55 73.1659 136.55 73.1671 136.55 73.1683C136.55 73.1694 136.55 73.1706 136.55 73.1717C136.55 73.1729 136.55 73.1741 136.55 73.1752C136.55 73.1764 136.55 73.1775 136.55 73.1787C136.55 73.1798 136.55 73.181 136.55 73.1821C136.55 73.1832 136.55 73.1844 136.55 73.1855C136.55 73.1866 136.55 73.1878 136.55 73.1889C136.55 73.19 136.55 73.1912 136.55 73.1923C136.55 73.1934 136.55 73.1945 136.55 73.1956C136.55 73.1967 136.55 73.1979 136.55 73.199C136.55 73.2001 136.55 73.2012 136.55 73.2023C136.55 73.2034 136.55 73.2045 136.55 73.2056C136.55 73.2067 136.55 73.2078 136.55 73.2089C136.55 73.2099 136.55 73.211 136.55 73.2121C136.55 73.2132 136.55 73.2143 136.55 73.2154C136.55 73.2164 136.55 73.2175 136.55 73.2186C136.55 73.2196 136.55 73.2207 136.55 73.2218C136.55 73.2228 136.55 73.2239 136.55 73.225C136.55 73.226 136.55 73.2271 136.55 73.2281C136.55 73.2292 136.55 73.2302 136.55 73.2313C136.55 73.2323 136.55 73.2333 136.55 73.2344C136.55 73.2354 136.55 73.2365 136.55 73.2375C136.55 73.2385 136.55 73.2396 136.55 73.2406C136.55 73.2416 136.55 73.2426 136.55 73.2436C136.55 73.2447 136.55 73.2457 136.55 73.2467C136.55 73.2477 136.55 73.2487 136.55 73.2497C136.55 73.2507 136.55 73.2517 136.55 73.2527C136.55 73.2537 136.55 73.2547 136.55 73.2557C136.55 73.2567 136.55 73.2577 136.55 73.2587C136.55 73.2597 136.55 73.2607 136.55 73.2616C136.55 73.2626 136.55 73.2636 136.55 73.2646C136.55 73.2655 136.55 73.2665 136.55 73.2675C136.55 73.2685 136.55 73.2694 136.55 73.2704C136.55 73.2713 136.55 73.2723 136.55 73.2733C136.55 73.2742 136.55 73.2752 136.55 73.2761C136.55 73.2771 136.55 73.278 136.55 73.2789C136.55 73.2799 136.55 73.2808 136.55 73.2818C136.55 73.2827 136.55 73.2836 136.55 73.2846C136.55 73.2855 136.55 73.2864 136.55 73.2873C136.55 73.2883 136.55 73.2892 136.55 73.2901C136.55 73.291 136.55 73.2919 136.55 73.2928C136.55 73.2938 136.55 73.2947 136.55 73.2956C136.55 73.2965 136.55 73.2974 136.55 73.2983C136.55 73.2992 136.55 73.3001 136.55 73.3009C136.55 73.3018 136.55 73.3027 136.55 73.3036C136.55 73.3045 136.55 73.3054 136.55 73.3063C136.55 73.3071 136.55 73.308 136.55 73.3089C136.55 73.3098 136.55 73.3106 136.55 73.3115C136.55 73.3124 136.55 73.3132 136.55 73.3141C136.55 73.3149 136.55 73.3158 136.55 73.3166C136.55 73.3175 136.55 73.3183 136.55 73.3192C136.55 73.32 136.55 73.3209 136.55 73.3217C136.55 73.3226 136.55 73.3234 136.55 73.3242C136.55 73.3251 136.55 73.3259 136.55 73.3267C136.55 73.3276 136.55 73.3284 136.55 73.3292C136.55 73.33 136.55 73.3308 136.55 73.3317C136.55 73.3325 136.55 73.3333 136.55 73.3341C136.55 73.3349 136.55 73.3357 136.55 73.3365C136.55 73.3373 136.55 73.3381 136.55 73.3389C136.55 73.3397 136.55 73.3405 136.55 73.3413C136.55 73.3421 136.55 73.3428 136.55 73.3436C136.55 73.3444 136.55 73.3452 136.55 73.346C136.55 73.3467 136.55 73.3475 136.55 73.3483C136.55 73.3491 136.55 73.3498 136.55 73.3506C136.55 73.3513 136.55 73.3521 136.55 73.3529C136.55 73.3536 136.55 73.3544 136.55 73.3551C136.55 73.3559 136.55 73.3566 136.55 73.3574C136.55 73.3581 136.55 73.3589 136.55 73.3596C136.55 73.3603 136.55 73.3611 136.55 73.3618C136.55 73.3625 136.55 73.3633 136.55 73.364C136.55 73.3647 136.55 73.3654 136.55 73.3661C136.55 73.3669 136.55 73.3676 136.55 73.3683C136.55 73.369 136.55 73.3697 136.55 73.3704C136.55 73.3711 136.55 73.3718 136.55 73.3725C136.55 73.3732 136.55 73.3739 136.55 73.3746C136.55 73.3753 136.55 73.376 136.55 73.3767C136.55 73.3774 136.55 73.3781 136.55 73.3787C136.55 73.3794 136.55 73.3801 136.55 73.3808C136.55 73.3814 136.55 73.3821 136.55 73.3828C136.55 73.3834 136.55 73.3841 136.55 73.3848C136.55 73.3854 136.55 73.3861 136.55 73.3867H139.55H142.55C142.55 73.3861 142.55 73.3854 142.55 73.3848C142.55 73.3841 142.55 73.3834 142.55 73.3828C142.55 73.3821 142.55 73.3814 142.55 73.3808C142.55 73.3801 142.55 73.3794 142.55 73.3787C142.55 73.3781 142.55 73.3774 142.55 73.3767C142.55 73.376 142.55 73.3753 142.55 73.3746C142.55 73.3739 142.55 73.3732 142.55 73.3725C142.55 73.3718 142.55 73.3711 142.55 73.3704C142.55 73.3697 142.55 73.369 142.55 73.3683C142.55 73.3676 142.55 73.3669 142.55 73.3661C142.55 73.3654 142.55 73.3647 142.55 73.364C142.55 73.3633 142.55 73.3625 142.55 73.3618C142.55 73.3611 142.55 73.3603 142.55 73.3596C142.55 73.3589 142.55 73.3581 142.55 73.3574C142.55 73.3566 142.55 73.3559 142.55 73.3551C142.55 73.3544 142.55 73.3536 142.55 73.3529C142.55 73.3521 142.55 73.3513 142.55 73.3506C142.55 73.3498 142.55 73.3491 142.55 73.3483C142.55 73.3475 142.55 73.3467 142.55 73.346C142.55 73.3452 142.55 73.3444 142.55 73.3436C142.55 73.3428 142.55 73.3421 142.55 73.3413C142.55 73.3405 142.55 73.3397 142.55 73.3389C142.55 73.3381 142.55 73.3373 142.55 73.3365C142.55 73.3357 142.55 73.3349 142.55 73.3341C142.55 73.3333 142.55 73.3325 142.55 73.3317C142.55 73.3308 142.55 73.33 142.55 73.3292C142.55 73.3284 142.55 73.3276 142.55 73.3267C142.55 73.3259 142.55 73.3251 142.55 73.3242C142.55 73.3234 142.55 73.3226 142.55 73.3217C142.55 73.3209 142.55 73.32 142.55 73.3192C142.55 73.3183 142.55 73.3175 142.55 73.3166C142.55 73.3158 142.55 73.3149 142.55 73.3141C142.55 73.3132 142.55 73.3124 142.55 73.3115C142.55 73.3106 142.55 73.3098 142.55 73.3089C142.55 73.308 142.55 73.3071 142.55 73.3063C142.55 73.3054 142.55 73.3045 142.55 73.3036C142.55 73.3027 142.55 73.3018 142.55 73.3009C142.55 73.3001 142.55 73.2992 142.55 73.2983C142.55 73.2974 142.55 73.2965 142.55 73.2956C142.55 73.2947 142.55 73.2938 142.55 73.2928C142.55 73.2919 142.55 73.291 142.55 73.2901C142.55 73.2892 142.55 73.2883 142.55 73.2873C142.55 73.2864 142.55 73.2855 142.55 73.2846C142.55 73.2836 142.55 73.2827 142.55 73.2818C142.55 73.2808 142.55 73.2799 142.55 73.2789C142.55 73.278 142.55 73.2771 142.55 73.2761C142.55 73.2752 142.55 73.2742 142.55 73.2733C142.55 73.2723 142.55 73.2713 142.55 73.2704C142.55 73.2694 142.55 73.2685 142.55 73.2675C142.55 73.2665 142.55 73.2655 142.55 73.2646C142.55 73.2636 142.55 73.2626 142.55 73.2616C142.55 73.2607 142.55 73.2597 142.55 73.2587C142.55 73.2577 142.55 73.2567 142.55 73.2557C142.55 73.2547 142.55 73.2537 142.55 73.2527C142.55 73.2517 142.55 73.2507 142.55 73.2497C142.55 73.2487 142.55 73.2477 142.55 73.2467C142.55 73.2457 142.55 73.2447 142.55 73.2436C142.55 73.2426 142.55 73.2416 142.55 73.2406C142.55 73.2396 142.55 73.2385 142.55 73.2375C142.55 73.2365 142.55 73.2354 142.55 73.2344C142.55 73.2333 142.55 73.2323 142.55 73.2313C142.55 73.2302 142.55 73.2292 142.55 73.2281C142.55 73.2271 142.55 73.226 142.55 73.225C142.55 73.2239 142.55 73.2228 142.55 73.2218C142.55 73.2207 142.55 73.2196 142.55 73.2186C142.55 73.2175 142.55 73.2164 142.55 73.2154C142.55 73.2143 142.55 73.2132 142.55 73.2121C142.55 73.211 142.55 73.2099 142.55 73.2089C142.55 73.2078 142.55 73.2067 142.55 73.2056C142.55 73.2045 142.55 73.2034 142.55 73.2023C142.55 73.2012 142.55 73.2001 142.55 73.199C142.55 73.1979 142.55 73.1967 142.55 73.1956C142.55 73.1945 142.55 73.1934 142.55 73.1923C142.55 73.1912 142.55 73.19 142.55 73.1889C142.55 73.1878 142.55 73.1866 142.55 73.1855C142.55 73.1844 142.55 73.1832 142.55 73.1821C142.55 73.181 142.55 73.1798 142.55 73.1787C142.55 73.1775 142.55 73.1764 142.55 73.1752C142.55 73.1741 142.55 73.1729 142.55 73.1717C142.55 73.1706 142.55 73.1694 142.55 73.1683C142.55 73.1671 142.55 73.1659 142.55 73.1647C142.55 73.1636 142.55 73.1624 142.55 73.1612C142.55 73.16 142.55 73.1589 142.55 73.1577C142.55 73.1565 142.55 73.1553 142.55 73.1541C142.55 73.1529 142.55 73.1517 142.55 73.1505C142.55 73.1493 142.55 73.1481 142.55 73.1469C142.55 73.1457 142.55 73.1445 142.55 73.1433C142.55 73.1421 142.55 73.1409 142.55 73.1397C142.55 73.1384 142.55 73.1372 142.55 73.136C142.55 73.1348 142.55 73.1335 142.55 73.1323C142.55 73.1311 142.55 73.1299 142.55 73.1286C142.55 73.1274 142.55 73.1261 142.55 73.1249C142.55 73.1237 142.55 73.1224 142.55 73.1212C142.55 73.1199 142.55 73.1187 142.55 73.1174C142.55 73.1161 142.55 73.1149 142.55 73.1136C142.55 73.1124 142.55 73.1111 142.55 73.1098C142.55 73.1086 142.55 73.1073 142.55 73.106C142.55 73.1047 142.55 73.1035 142.55 73.1022C142.55 73.1009 142.55 73.0996 142.55 73.0983C142.55 73.097 142.55 73.0957 142.55 73.0945C142.55 73.0932 142.55 73.0919 142.55 73.0906C142.55 73.0893 142.55 73.088 142.55 73.0867C142.55 73.0853 142.55 73.084 142.55 73.0827C142.55 73.0814 142.55 73.0801 142.55 73.0788C142.55 73.0775 142.55 73.0761 142.55 73.0748C142.55 73.0735 142.55 73.0722 142.55 73.0708C142.55 73.0695 142.55 73.0682 142.55 73.0668C142.55 73.0655 142.55 73.0641 142.55 73.0628C142.55 73.0614 142.55 73.0601 142.55 73.0587C142.55 73.0574 142.55 73.056 142.55 73.0547C142.55 73.0533 142.55 73.052 142.55 73.0506C142.55 73.0492 142.55 73.0479 142.55 73.0465C142.55 73.0451 142.55 73.0437 142.55 73.0424C142.55 73.041 142.55 73.0396 142.55 73.0382C142.55 73.0368 142.55 73.0355 142.55 73.0341C142.55 73.0327 142.55 73.0313 142.55 73.0299C142.55 73.0285 142.55 73.0271 142.55 73.0257C142.55 73.0243 142.55 73.0229 142.55 73.0215C142.55 73.0201 142.55 73.0187 142.55 73.0172C142.55 73.0158 142.55 73.0144 142.55 73.013C142.55 73.0116 142.55 73.0101 142.55 73.0087C142.55 73.0073 142.55 73.0058 142.55 73.0044C142.55 73.003 142.55 73.0015 142.55 73.0001C142.55 72.9987 142.55 72.9972 142.55 72.9958C142.55 72.9943 142.55 72.9929 142.55 72.9914C142.55 72.99 142.55 72.9885 142.55 72.987C142.55 72.9856 142.55 72.9841 142.55 72.9827C142.55 72.9812 142.55 72.9797 142.55 72.9782C142.55 72.9768 142.55 72.9753 142.55 72.9738C142.55 72.9723 142.55 72.9709 142.55 72.9694C142.55 72.9679 142.55 72.9664 142.55 72.9649C142.55 72.9634 142.55 72.9619 142.55 72.9604C142.55 72.9589 142.55 72.9574 142.55 72.9559C142.55 72.9544 142.55 72.9529 142.55 72.9514C142.55 72.9499 142.55 72.9484 142.55 72.9468C142.55 72.9453 142.55 72.9438 142.55 72.9423C142.55 72.9408 142.55 72.9392 142.55 72.9377C142.55 72.9362 142.55 72.9346 142.55 72.9331C142.55 72.9316 142.55 72.93 142.55 72.9285C142.55 72.9269 142.55 72.9254 142.55 72.9238C142.55 72.9223 142.55 72.9207 142.55 72.9192C142.55 72.9176 142.55 72.9161 142.55 72.9145C142.55 72.9129 142.55 72.9114 142.55 72.9098C142.55 72.9082 142.55 72.9067 142.55 72.9051C142.55 72.9035 142.55 72.9019 142.55 72.9004C142.55 72.8988 142.55 72.8972 142.55 72.8956C142.55 72.894 142.55 72.8924 142.55 72.8908C142.55 72.8892 142.55 72.8876 142.55 72.886C142.55 72.8844 142.55 72.8828 142.55 72.8812C142.55 72.8796 142.55 72.878 142.55 72.8764C142.55 72.8748 142.55 72.8732 142.55 72.8715C142.55 72.8699 142.55 72.8683 142.55 72.8667C142.55 72.865 142.55 72.8634 142.55 72.8618C142.55 72.8601 142.55 72.8585 142.55 72.8569C142.55 72.8552 142.55 72.8536 142.55 72.8519C142.55 72.8503 142.55 72.8487 142.55 72.847C142.55 72.8453 142.55 72.8437 142.55 72.842C142.55 72.8404 142.55 72.8387 142.55 72.8371C142.55 72.8354 142.55 72.8337 142.55 72.832C142.55 72.8304 142.55 72.8287 142.55 72.827C142.55 72.8253 142.55 72.8237 142.55 72.822C142.55 72.8203 142.55 72.8186 142.55 72.8169C142.55 72.8152 142.55 72.8135 142.55 72.8118C142.55 72.8101 142.55 72.8084 142.55 72.8067C142.55 72.805 142.55 72.8033 142.55 72.8016C142.55 72.7999 142.55 72.7982 142.55 72.7965C142.55 72.7948 142.55 72.793 142.55 72.7913C142.55 72.7896 142.55 72.7879 142.55 72.7862C142.55 72.7844 142.55 72.7827 142.55 72.781C142.55 72.7792 142.55 72.7775 142.55 72.7757C142.55 72.774 142.55 72.7723 142.55 72.7705C142.55 72.7688 142.55 72.767 142.55 72.7653C142.55 72.7635 142.55 72.7617 142.55 72.76C142.55 72.7582 142.55 72.7565 142.55 72.7547C142.55 72.7529 142.55 72.7512 142.55 72.7494C142.55 72.7476 142.55 72.7458 142.55 72.744C142.55 72.7423 142.55 72.7405 142.55 72.7387C142.55 72.7369 142.55 72.7351 142.55 72.7333C142.55 72.7315 142.55 72.7297 142.55 72.7279C142.55 72.7261 142.55 72.7243 142.55 72.7225C142.55 72.7207 142.55 72.7189 142.55 72.7171C142.55 72.7153 142.55 72.7135 142.55 72.7117C142.55 72.7098 142.55 72.708 142.55 72.7062C142.55 72.7044 142.55 72.7026 142.55 72.7007C142.55 72.6989 142.55 72.6971 142.55 72.6952C142.55 72.6934 142.55 72.6915 142.55 72.6897C142.55 72.6879 142.55 72.686 142.55 72.6842C142.55 72.6823 142.55 72.6805 142.55 72.6786C142.55 72.6767 142.55 72.6749 142.55 72.673C142.55 72.6712 142.55 72.6693 142.55 72.6674C142.55 72.6655 142.55 72.6637 142.55 72.6618C142.55 72.6599 142.55 72.658 142.55 72.6562C142.55 72.6543 142.55 72.6524 142.55 72.6505C142.55 72.6486 142.55 72.6467 142.55 72.6448C142.55 72.6429 142.55 72.641 142.55 72.6391C142.55 72.6372 142.55 72.6353 142.55 72.6334C142.55 72.6315 142.55 72.6296 142.55 72.6277C142.55 72.6258 142.55 72.6239 142.55 72.6219C142.55 72.62 142.55 72.6181 142.55 72.6162C142.55 72.6142 142.55 72.6123 142.55 72.6104C142.55 72.6084 142.55 72.6065 142.55 72.6046C142.55 72.6026 142.55 72.6007 142.55 72.5987C142.55 72.5968 142.55 72.5948 142.55 72.5929C142.55 72.5909 142.55 72.589 142.55 72.587C142.55 72.5851 142.55 72.5831 142.55 72.5811C142.55 72.5792 142.55 72.5772 142.55 72.5752C142.55 72.5733 142.55 72.5713 142.55 72.5693C142.55 72.5673 142.55 72.5654 142.55 72.5634C142.55 72.5614 142.55 72.5594 142.55 72.5574C142.55 72.5554 142.55 72.5534 142.55 72.5514C142.55 72.5494 142.55 72.5474 142.55 72.5454C142.55 72.5434 142.55 72.5414 142.55 72.5394C142.55 72.5374 142.55 72.5354 142.55 72.5334C142.55 72.5313 142.55 72.5293 142.55 72.5273C142.55 72.5253 142.55 72.5233 142.55 72.5212C142.55 72.5192 142.55 72.5172 142.55 72.5151C142.55 72.5131 142.55 72.5111 142.55 72.509C142.55 72.507 142.55 72.5049 142.55 72.5029C142.55 72.5008 142.55 72.4988 142.55 72.4967C142.55 72.4947 142.55 72.4926 142.55 72.4906C142.55 72.4885 142.55 72.4864 142.55 72.4844C142.55 72.4823 142.55 72.4802 142.55 72.4781C142.55 72.4761 142.55 72.474 142.55 72.4719C142.55 72.4698 142.55 72.4678 142.55 72.4657C142.55 72.4636 142.55 72.4615 142.55 72.4594C142.55 72.4573 142.55 72.4552 142.55 72.4531C142.55 72.451 142.55 72.4489 142.55 72.4468C142.55 72.4447 142.55 72.4426 142.55 72.4405C142.55 72.4384 142.55 72.4362 142.55 72.4341C142.55 72.432 142.55 72.4299 142.55 72.4278C142.55 72.4256 142.55 72.4235 142.55 72.4214C142.55 72.4192 142.55 72.4171 142.55 72.415C142.55 72.4128 142.55 72.4107 142.55 72.4085C142.55 72.4064 142.55 72.4043 142.55 72.4021C142.55 72.4 142.55 72.3978 142.55 72.3956C142.55 72.3935 142.55 72.3913 142.55 72.3892C142.55 72.387 142.55 72.3848 142.55 72.3827C142.55 72.3805 142.55 72.3783 142.55 72.3761C142.55 72.374 142.55 72.3718 142.55 72.3696C142.55 72.3674 142.55 72.3652 142.55 72.363C142.55 72.3609 142.55 72.3587 142.55 72.3565C142.55 72.3543 142.55 72.3521 142.55 72.3499C142.55 72.3477 142.55 72.3455 142.55 72.3433C142.55 72.3411 142.55 72.3388 142.55 72.3366C142.55 72.3344 142.55 72.3322 142.55 72.33C142.55 72.3278 142.55 72.3255 142.55 72.3233C142.55 72.3211 142.55 72.3188 142.55 72.3166C142.55 72.3144 142.55 72.3121 142.55 72.3099C142.55 72.3077 142.55 72.3054 142.55 72.3032C142.55 72.3009 142.55 72.2987 142.55 72.2964C142.55 72.2942 142.55 72.2919 142.55 72.2897C142.55 72.2874 142.55 72.2851 142.55 72.2829C142.55 72.2806 142.55 72.2783 142.55 72.2761C142.55 72.2738 142.55 72.2715 142.55 72.2692C142.55 72.267 142.55 72.2647 142.55 72.2624C142.55 72.2601 142.55 72.2578 142.55 72.2555C142.55 72.2532 142.55 72.2509 142.55 72.2486C142.55 72.2463 142.55 72.244 142.55 72.2417C142.55 72.2394 142.55 72.2371 142.55 72.2348C142.55 72.2325 142.55 72.2302 142.55 72.2279C142.55 72.2256 142.55 72.2232 142.55 72.2209C142.55 72.2186 142.55 72.2163 142.55 72.2139C142.55 72.2116 142.55 72.2093 142.55 72.2069C142.55 72.2046 142.55 72.2023 142.55 72.1999C142.55 72.1976 142.55 72.1952 142.55 72.1929C142.55 72.1905 142.55 72.1882 142.55 72.1858C142.55 72.1835 142.55 72.1811 142.55 72.1788C142.55 72.1764 142.55 72.174 142.55 72.1717C142.55 72.1693 142.55 72.1669 142.55 72.1645C142.55 72.1622 142.55 72.1598 142.55 72.1574C142.55 72.155 142.55 72.1526 142.55 72.1503C142.55 72.1479 142.55 72.1455 142.55 72.1431C142.55 72.1407 142.55 72.1383 142.55 72.1359C142.55 72.1335 142.55 72.1311 142.55 72.1287C142.55 72.1263 142.55 72.1239 142.55 72.1215C142.55 72.119 142.55 72.1166 142.55 72.1142C142.55 72.1118 142.55 72.1094 142.55 72.1069C142.55 72.1045 142.55 72.1021 142.55 72.0997C142.55 72.0972 142.55 72.0948 142.55 72.0924C142.55 72.0899 142.55 72.0875 142.55 72.085C142.55 72.0826 142.55 72.0801 142.55 72.0777C142.55 72.0752 142.55 72.0728 142.55 72.0703C142.55 72.0679 142.55 72.0654 142.55 72.0629C142.55 72.0605 142.55 72.058 142.55 72.0555C142.55 72.0531 142.55 72.0506 142.55 72.0481C142.55 72.0456 142.55 72.0432 142.55 72.0407C142.55 72.0382 142.55 72.0357 142.55 72.0332C142.55 72.0307 142.55 72.0282 142.55 72.0257C142.55 72.0233 142.55 72.0208 142.55 72.0182C142.55 72.0157 142.55 72.0132 142.55 72.0107C142.55 72.0082 142.55 72.0057 142.55 72.0032C142.55 72.0007 142.55 71.9982 142.55 71.9956C142.55 71.9931 142.55 71.9906 142.55 71.9881C142.55 71.9855 142.55 71.983 142.55 71.9805C142.55 71.9779 142.55 71.9754 142.55 71.9729C142.55 71.9703 142.55 71.9678 142.55 71.9652C142.55 71.9627 142.55 71.9601 142.55 71.9576C142.55 71.955 142.55 71.9525 142.55 71.9499C142.55 71.9474 142.55 71.9448 142.55 71.9422C142.55 71.9397 142.55 71.9371 142.55 71.9345C142.55 71.9319 142.55 71.9294 142.55 71.9268C142.55 71.9242 142.55 71.9216 142.55 71.919C142.55 71.9165 142.55 71.9139 142.55 71.9113C142.55 71.9087 142.55 71.9061 142.55 71.9035C142.55 71.9009 142.55 71.8983 142.55 71.8957C142.55 71.8931 142.55 71.8905 142.55 71.8879C142.55 71.8853 142.55 71.8826 142.55 71.88C142.55 71.8774 142.55 71.8748 142.55 71.8722C142.55 71.8695 142.55 71.8669 142.55 71.8643C142.55 71.8617 142.55 71.859 142.55 71.8564C142.55 71.8537 142.55 71.8511 142.55 71.8485C142.55 71.8458 142.55 71.8432 142.55 71.8405C142.55 71.8379 142.55 71.8352 142.55 71.8326C142.55 71.8299 142.55 71.8273 142.55 71.8246C142.55 71.8219 142.55 71.8193 142.55 71.8166C142.55 71.8139 142.55 71.8113 142.55 71.8086C142.55 71.8059 142.55 71.8032 142.55 71.8005C142.55 71.7979 142.55 71.7952 142.55 71.7925C142.55 71.7898 142.55 71.7871 142.55 71.7844C142.55 71.7817 142.55 71.779 142.55 71.7763C142.55 71.7736 142.55 71.7709 142.55 71.7682C142.55 71.7655 142.55 71.7628 142.55 71.7601C142.55 71.7574 142.55 71.7547 142.55 71.7519C142.55 71.7492 142.55 71.7465 142.55 71.7438C142.55 71.741 142.55 71.7383 142.55 71.7356C142.55 71.7329 142.55 71.7301 142.55 71.7274C142.55 71.7246 142.55 71.7219 142.55 71.7192C142.55 71.7164 142.55 71.7137 142.55 71.7109C142.55 71.7082 142.55 71.7054 142.55 71.7026C142.55 71.6999 142.55 71.6971 142.55 71.6944C142.55 71.6916 142.55 71.6888 142.55 71.6861C142.55 71.6833 142.55 71.6805 142.55 71.6777C142.55 71.675 142.55 71.6722 142.55 71.6694C142.55 71.6666 142.55 71.6638 142.55 71.661C142.55 71.6582 142.55 71.6554 142.55 71.6527C142.55 71.6499 142.55 71.6471 142.55 71.6443C142.55 71.6415 142.55 71.6386 142.55 71.6358C142.55 71.633 142.55 71.6302 142.55 71.6274C142.55 71.6246 142.55 71.6218 142.55 71.6189C142.55 71.6161 142.55 71.6133 142.55 71.6105C142.55 71.6076 142.55 71.6048 142.55 71.602C142.55 71.5991 142.55 71.5963 142.55 71.5935C142.55 71.5906 142.55 71.5878 142.55 71.5849C142.55 71.5821 142.55 71.5792 142.55 71.5764C142.55 71.5735 142.55 71.5707 142.55 71.5678C142.55 71.5649 142.55 71.5621 142.55 71.5592C142.55 71.5563 142.55 71.5535 142.55 71.5506C142.55 71.5477 142.55 71.5449 142.55 71.542C142.55 71.5391 142.55 71.5362 142.55 71.5333C142.55 71.5304 142.55 71.5276 142.55 71.5247C142.55 71.5218 142.55 71.5189 142.55 71.516C142.55 71.5131 142.55 71.5102 142.55 71.5073C142.55 71.5044 142.55 71.5015 142.55 71.4985C142.55 71.4956 142.55 71.4927 142.55 71.4898C142.55 71.4869 142.55 71.484 142.55 71.481C142.55 71.4781 142.55 71.4752 142.55 71.4723C142.55 71.4693 142.55 71.4664 142.55 71.4635C142.55 71.4605 142.55 71.4576 142.55 71.4546C142.55 71.4517 142.55 71.4487 142.55 71.4458C142.55 71.4428 142.55 71.4399 142.55 71.4369C142.55 71.434 142.55 71.431 142.55 71.4281C142.55 71.4251 142.55 71.4221 142.55 71.4192C142.55 71.4162 142.55 71.4132 142.55 71.4102C142.55 71.4073 142.55 71.4043 142.55 71.4013C142.55 71.3983 142.55 71.3953 142.55 71.3924C142.55 71.3894 142.55 71.3864 142.55 71.3834C142.55 71.3804 142.55 71.3774 142.55 71.3744C142.55 71.3714 142.55 71.3684 142.55 71.3654C142.55 71.3624 142.55 71.3594 142.55 71.3563C142.55 71.3533 142.55 71.3503 142.55 71.3473C142.55 71.3443 142.55 71.3413 142.55 71.3382C142.55 71.3352 142.55 71.3322 142.55 71.3291C142.55 71.3261 142.55 71.3231 142.55 71.32C142.55 71.317 142.55 71.3139 142.55 71.3109C142.55 71.3079 142.55 71.3048 142.55 71.3018C142.55 71.2987 142.55 71.2956 142.55 71.2926C142.55 71.2895 142.55 71.2865 142.55 71.2834C142.55 71.2803 142.55 71.2773 142.55 71.2742C142.55 71.2711 142.55 71.2681 142.55 71.265C142.55 71.2619 142.55 71.2588 142.55 71.2557C142.55 71.2527 142.55 71.2496 142.55 71.2465C142.55 71.2434 142.55 71.2403 142.55 71.2372C142.55 71.2341 142.55 71.231 142.55 71.2279C142.55 71.2248 142.55 71.2217 142.55 71.2186C142.55 71.2155 142.55 71.2124 142.55 71.2092C142.55 71.2061 142.55 71.203 142.55 71.1999C142.55 71.1968 142.55 71.1936 142.55 71.1905C142.55 71.1874 142.55 71.1842 142.55 71.1811C142.55 71.178 142.55 71.1748 142.55 71.1717C142.55 71.1686 142.55 71.1654 142.55 71.1623C142.55 71.1591 142.55 71.156 142.55 71.1528C142.55 71.1497 142.55 71.1465 142.55 71.1433C142.55 71.1402 142.55 71.137 142.55 71.1338C142.55 71.1307 142.55 71.1275 142.55 71.1243C142.55 71.1212 142.55 71.118 142.55 71.1148C142.55 71.1116 142.55 71.1084 142.55 71.1053C142.55 71.1021 142.55 71.0989 142.55 71.0957C142.55 71.0925 142.55 71.0893 142.55 71.0861C142.55 71.0829 142.55 71.0797 142.55 71.0765C142.55 71.0733 142.55 71.0701 142.55 71.0669C142.55 71.0637 142.55 71.0604 142.55 71.0572C142.55 71.054 142.55 71.0508 142.55 71.0476C142.55 71.0443 142.55 71.0411 142.55 71.0379C142.55 71.0346 142.55 71.0314 142.55 71.0282C142.55 71.0249 142.55 71.0217 142.55 71.0184C142.55 71.0152 142.55 71.012 142.55 71.0087C142.55 71.0055 142.55 71.0022 142.55 70.9989C142.55 70.9957 142.55 70.9924 142.55 70.9892C142.55 70.9859 142.55 70.9826 142.55 70.9794C142.55 70.9761 142.55 70.9728 142.55 70.9695C142.55 70.9663 142.55 70.963 142.55 70.9597C142.55 70.9564 142.55 70.9531 142.55 70.9499C142.55 70.9466 142.55 70.9433 142.55 70.94C142.55 70.9367 142.55 70.9334 142.55 70.9301C142.55 70.9268 142.55 70.9235 142.55 70.9202C142.55 70.9169 142.55 70.9136 142.55 70.9102C142.55 70.9069 142.55 70.9036 142.55 70.9003C142.55 70.897 142.55 70.8936 142.55 70.8903C142.55 70.887 142.55 70.8837 142.55 70.8803C142.55 70.877 142.55 70.8737 142.55 70.8703C142.55 70.867 142.55 70.8636 142.55 70.8603C142.55 70.8569 142.55 70.8536 142.55 70.8502C142.55 70.8469 142.55 70.8435 142.55 70.8402C142.55 70.8368 142.55 70.8335 142.55 70.8301C142.55 70.8267 142.55 70.8234 142.55 70.82C142.55 70.8166 142.55 70.8132 142.55 70.8099C142.55 70.8065 142.55 70.8031 142.55 70.7997C142.55 70.7963 142.55 70.7929 142.55 70.7896C142.55 70.7862 142.55 70.7828 142.55 70.7794C142.55 70.776 142.55 70.7726 142.55 70.7692C142.55 70.7658 142.55 70.7624 142.55 70.7589C142.55 70.7555 142.55 70.7521 142.55 70.7487C142.55 70.7453 142.55 70.7419 142.55 70.7384C142.55 70.735 142.55 70.7316 142.55 70.7282C142.55 70.7247 142.55 70.7213 142.55 70.7179C142.55 70.7144 142.55 70.711 142.55 70.7076C142.55 70.7041 142.55 70.7007 142.55 70.6972C142.55 70.6938 142.55 70.6903 142.55 70.6869C142.55 70.6834 142.55 70.68 142.55 70.6765C142.55 70.673 142.55 70.6696 142.55 70.6661C142.55 70.6626 142.55 70.6592 142.55 70.6557C142.55 70.6522 142.55 70.6487 142.55 70.6453C142.55 70.6418 142.55 70.6383 142.55 70.6348C142.55 70.6313 142.55 70.6278 142.55 70.6243C142.55 70.6208 142.55 70.6173 142.55 70.6138C142.55 70.6103 142.55 70.6068 142.55 70.6033C142.55 70.5998 142.55 70.5963 142.55 70.5928C142.55 70.5893 142.55 70.5858 142.55 70.5823C142.55 70.5787 142.55 70.5752 142.55 70.5717C142.55 70.5682 142.55 70.5646 142.55 70.5611C142.55 70.5576 142.55 70.5541 142.55 70.5505C142.55 70.547 142.55 70.5434 142.55 70.5399C142.55 70.5363 142.55 70.5328 142.55 70.5292C142.55 70.5257 142.55 70.5221 142.55 70.5186C142.55 70.515 142.55 70.5115 142.55 70.5079C142.55 70.5043 142.55 70.5008 142.55 70.4972C142.55 70.4936 142.55 70.4901 142.55 70.4865C142.55 70.4829 142.55 70.4793 142.55 70.4757C142.55 70.4722 142.55 70.4686 142.55 70.465C142.55 70.4614 142.55 70.4578 142.55 70.4542C142.55 70.4506 142.55 70.447 142.55 70.4434C142.55 70.4398 142.55 70.4362 142.55 70.4326C142.55 70.429 142.55 70.4254 142.55 70.4218C142.55 70.4182 142.55 70.4145 142.55 70.4109C142.55 70.4073 142.55 70.4037 142.55 70.4C142.55 70.3964 142.55 70.3928 142.55 70.3892C142.55 70.3855 142.55 70.3819 142.55 70.3782C142.55 70.3746 142.55 70.371 142.55 70.3673C142.55 70.3637 142.55 70.36 142.55 70.3564C142.55 70.3527 142.55 70.3491 142.55 70.3454C142.55 70.3417 142.55 70.3381 142.55 70.3344C142.55 70.3307 142.55 70.3271 142.55 70.3234C142.55 70.3197 142.55 70.3161 142.55 70.3124C142.55 70.3087 142.55 70.305 142.55 70.3013C142.55 70.2976 142.55 70.294 142.55 70.2903C142.55 70.2866 142.55 70.2829 142.55 70.2792C142.55 70.2755 142.55 70.2718 142.55 70.2681C142.55 70.2644 142.55 70.2607 142.55 70.257C142.55 70.2532 142.55 70.2495 142.55 70.2458C142.55 70.2421 142.55 70.2384 142.55 70.2347C142.55 70.2309 142.55 70.2272 142.55 70.2235C142.55 70.2197 142.55 70.216 142.55 70.2123C142.55 70.2085 142.55 70.2048 142.55 70.2011C142.55 70.1973 142.55 70.1936 142.55 70.1898C142.55 70.1861 142.55 70.1823 142.55 70.1786C142.55 70.1748 142.55 70.1711 142.55 70.1673C142.55 70.1635 142.55 70.1598 142.55 70.156C142.55 70.1522 142.55 70.1485 142.55 70.1447C142.55 70.1409 142.55 70.1371 142.55 70.1333C142.55 70.1296 142.55 70.1258 142.55 70.122C142.55 70.1182 142.55 70.1144 142.55 70.1106C142.55 70.1068 142.55 70.103 142.55 70.0992C142.55 70.0954 142.55 70.0916 142.55 70.0878C142.55 70.084 142.55 70.0802 142.55 70.0764C142.55 70.0726 142.55 70.0688 142.55 70.0649C142.55 70.0611 142.55 70.0573 142.55 70.0535C142.55 70.0497 142.55 70.0458 142.55 70.042C142.55 70.0382 142.55 70.0343 142.55 70.0305C142.55 70.0267 142.55 70.0228 142.55 70.019C142.55 70.0151 142.55 70.0113 142.55 70.0074C142.55 70.0036 142.55 69.9997 142.55 69.9959C142.55 69.992 142.55 69.9881 142.55 69.9843C142.55 69.9804 142.55 69.9765 142.55 69.9727C142.55 69.9688 142.55 69.9649 142.55 69.9611C142.55 69.9572 142.55 69.9533 142.55 69.9494C142.55 69.9455 142.55 69.9416 142.55 69.9378C142.55 69.9339 142.55 69.93 142.55 69.9261C142.55 69.9222 142.55 69.9183 142.55 69.9144C142.55 69.9105 142.55 69.9066 142.55 69.9027C142.55 69.8988 142.55 69.8948 142.55 69.8909C142.55 69.887 142.55 69.8831 142.55 69.8792C142.55 69.8753 142.55 69.8713 142.55 69.8674H139.55ZM139.55 73.3867L137.299 75.3694L145.711 84.9219L147.962 82.9392L150.214 80.9565L141.801 71.404L139.55 73.3867ZM147.962 82.9392V85.9392H156.869V82.9392V79.9392H147.962V82.9392ZM156.869 82.9392V85.9392C157.408 85.9392 158.56 86.0572 159.607 86.5375C160.578 86.9823 161.298 87.6449 161.603 88.7778L164.5 88L167.397 87.2222C166.514 83.9308 164.244 82.063 162.108 81.0835C160.049 80.1394 157.98 79.9392 156.869 79.9392V82.9392ZM164.5 88L161.603 88.7778C161.882 89.8178 162.036 90.5495 162.118 91.0514C162.159 91.3007 162.18 91.4815 162.19 91.6061C162.2 91.7322 162.198 91.785 162.198 91.7816C162.198 91.7813 162.201 91.6916 162.236 91.5437C162.271 91.3978 162.349 91.144 162.526 90.8527C162.711 90.5492 162.998 90.2155 163.417 89.9489C163.622 89.8186 163.839 89.7165 164.063 89.6423C164.174 89.6056 164.284 89.5765 164.392 89.554C164.446 89.5428 164.5 89.5333 164.552 89.5253C164.578 89.5214 164.604 89.5178 164.63 89.5146C164.643 89.513 164.656 89.5115 164.669 89.51C164.675 89.5093 164.685 89.5083 164.688 89.508C164.698 89.507 164.707 89.506 165 92.4917C165.293 95.4774 165.302 95.4765 165.312 95.4755C165.315 95.4751 165.325 95.4741 165.331 95.4734C165.344 95.472 165.357 95.4704 165.37 95.4688C165.396 95.4656 165.422 95.462 165.449 95.4579C165.502 95.4499 165.556 95.4402 165.612 95.4288C165.722 95.4058 165.836 95.3757 165.952 95.3374C166.185 95.2601 166.416 95.1523 166.637 95.0115C167.09 94.7239 167.421 94.3503 167.652 93.9714C168.077 93.2731 168.172 92.5416 168.193 92.0283C168.236 90.9825 168.007 89.4946 167.397 87.2222L164.5 88ZM165 92.4917V89.4917H143.014V92.4917V95.4917H165V92.4917ZM143.014 92.4917L144.753 90.047L120.011 72.4503L118.272 74.895L116.533 77.3398L141.275 94.9365L143.014 92.4917ZM118.272 74.895L116.104 72.8217L108.832 80.4267L111 82.5L113.168 84.5733L120.44 76.9683L118.272 74.895ZM90.5608 74.895L88.4875 77.0633L96.8997 85.1074L98.9731 82.9392L101.046 80.771L92.6342 72.7268L90.5608 74.895ZM98.9731 82.9392V85.9392H108.87V82.9392V79.9392H98.9731V82.9392ZM108.87 82.9392L107.74 85.7185C108.31 85.9498 109.368 86.507 110.329 87.3131C111.317 88.1418 111.906 88.9811 112.087 89.7168L115 89L117.913 88.2832C117.302 85.8012 115.651 83.9454 114.184 82.7156C112.691 81.4634 111.08 80.599 109.999 80.16L108.87 82.9392ZM115 89L112.087 89.7168C112.498 91.3867 112.638 91.8125 112.699 92.0283C112.703 92.0417 112.696 92.0191 112.689 91.9867C112.685 91.9648 112.686 91.966 112.696 92.0286C112.72 92.1823 112.75 92.3988 112.831 92.9351L115.798 92.4917L118.765 92.0483C118.644 91.2397 118.603 90.8515 118.469 90.3829C118.404 90.1552 118.294 89.831 117.913 88.2832L115 89ZM3.46899 91.4862H6.46899C6.46899 91.5006 6.48228 91.1978 6.63217 90.7128C6.77364 90.255 7.00719 89.7334 7.36714 89.2458L4.95351 87.4641L2.53989 85.6824C0.927034 87.8673 0.468994 90.2535 0.468994 91.4862H3.46899ZM4.95351 87.4641L7.36714 89.2458C8.24672 88.0542 8.55319 87.5617 8.99296 87.0652C9.29101 86.7287 9.60548 86.4547 10.271 86.1166L8.91223 83.442L7.55349 80.7673C4.79297 82.1697 3.84699 83.9117 2.53989 85.6824L4.95351 87.4641ZM8.91223 83.442L10.271 86.1166C12.2286 85.1222 15.1317 83.9282 17.3245 83.9282V80.9282V77.9282C13.5792 77.9282 9.55457 79.7508 7.55349 80.7673L8.91223 83.442ZM17.3245 80.9282V83.9282C19.0487 83.9282 21.5865 83.6476 23.8392 83.2552C24.9811 83.0563 26.1165 82.8173 27.0956 82.5485C27.9573 82.3119 29.0722 81.9572 29.8934 81.401L28.211 78.9171L26.5286 76.4333C26.6075 76.3798 26.3616 76.5279 25.5068 76.7626C24.7694 76.9651 23.8327 77.166 22.8097 77.3442C20.7325 77.706 18.5694 77.9282 17.3245 77.9282V80.9282ZM28.211 78.9171L29.8934 81.401C30.4345 81.0345 33.1677 79.3499 35.7874 77.4487C38.3557 75.5848 41.55 73.014 43.1372 70.4337L40.582 68.8619L38.0267 67.29C37.1398 68.7319 34.8908 70.6859 32.2633 72.5927C29.6872 74.4623 27.472 75.7943 26.5286 76.4333L28.211 78.9171ZM40.582 68.8619L43.1372 70.4337C45.1786 67.1153 47.0381 63.5427 47.7272 62.1423L45.0355 60.8177L42.3438 59.4931C41.7134 60.7741 39.9441 64.1731 38.0267 67.29L40.582 68.8619ZM3 92.4917V95.4917H115.798V92.4917V89.4917H3V92.4917Z" fill="black"/>
</svg>
